<?xml version="1.0" encoding="UTF-8" standalone="no"?>
<!DOCTYPE svg PUBLIC "-//W3C//DTD SVG 1.1//EN"
 "http://www.w3.org/Graphics/SVG/1.1/DTD/svg11.dtd">
<!-- Generated by graphviz version 2.36.0 (20140111.2315)
 -->
<!-- Title: G Pages: 1 -->
<svg width="422pt" height="302pt"
 viewBox="0.00 0.00 422.00 302.00" xmlns="http://www.w3.org/2000/svg" xmlns:xlink="http://www.w3.org/1999/xlink">
<g id="graph0" class="graph" transform="scale(1 1) rotate(0) translate(4 298)">
<title>G</title>
<polygon fill="white" stroke="none" points="-4,4 -4,-298 418,-298 418,4 -4,4"/>
<!-- 100 -->
<g id="node1" class="node"><title>100</title>
<ellipse fill="none" stroke="black" cx="256" cy="-276" rx="27" ry="18"/>
<text text-anchor="middle" x="256" y="-271.8" font-family="Times,serif" font-size="14.00">6</text>
</g>
<!-- 101 -->
<g id="node2" class="node"><title>101</title>
<ellipse fill="none" stroke="black" cx="215" cy="-190" rx="27" ry="18"/>
<text text-anchor="middle" x="215" y="-185.8" font-family="Times,serif" font-size="14.00">4</text>
</g>
<!-- 100&#45;&gt;101 -->
<g id="edge1" class="edge"><title>100&#45;&gt;101</title>
<path fill="none" stroke="black" d="M247.9,-258.404C242.078,-246.477 234.12,-230.172 227.488,-216.586"/>
<polygon fill="black" stroke="black" points="230.476,-214.727 222.944,-207.275 224.185,-217.797 230.476,-214.727"/>
<text text-anchor="middle" x="241.5" y="-228.8" font-family="Times,serif" font-size="14.00">2</text>
</g>
<!-- 112 -->
<g id="node9" class="node"><title>112</title>
<ellipse fill="none" stroke="black" cx="315" cy="-190" rx="27" ry="18"/>
<text text-anchor="middle" x="315" y="-185.8" font-family="Times,serif" font-size="14.00">3</text>
</g>
<!-- 100&#45;&gt;112 -->
<g id="edge8" class="edge"><title>100&#45;&gt;112</title>
<path fill="none" stroke="black" d="M267.097,-259.2C275.833,-246.764 288.152,-229.224 298.11,-215.046"/>
<polygon fill="black" stroke="black" points="301.069,-216.924 303.952,-206.729 295.34,-212.9 301.069,-216.924"/>
<text text-anchor="middle" x="293.5" y="-228.8" font-family="Times,serif" font-size="14.00">3</text>
</g>
<!-- 102 -->
<g id="node3" class="node"><title>102</title>
<ellipse fill="none" stroke="black" cx="99" cy="-104" rx="27" ry="18"/>
<text text-anchor="middle" x="99" y="-99.8" font-family="Times,serif" font-size="14.00">2</text>
</g>
<!-- 101&#45;&gt;102 -->
<g id="edge2" class="edge"><title>101&#45;&gt;102</title>
<path fill="none" stroke="black" d="M197.382,-176.242C178.134,-162.304 147.108,-139.836 125.047,-123.861"/>
<polygon fill="black" stroke="black" points="126.936,-120.908 116.784,-117.878 122.83,-126.578 126.936,-120.908"/>
<text text-anchor="middle" x="167.5" y="-142.8" font-family="Times,serif" font-size="14.00">2</text>
</g>
<!-- 107 -->
<g id="node6" class="node"><title>107</title>
<ellipse fill="none" stroke="black" cx="215" cy="-104" rx="27" ry="18"/>
<text text-anchor="middle" x="215" y="-99.8" font-family="Times,serif" font-size="14.00">1</text>
</g>
<!-- 101&#45;&gt;107 -->
<g id="edge5" class="edge"><title>101&#45;&gt;107</title>
<path fill="none" stroke="black" d="M215,-171.595C215,-160.257 215,-145.227 215,-132.315"/>
<polygon fill="black" stroke="black" points="218.5,-132.095 215,-122.095 211.5,-132.095 218.5,-132.095"/>
<text text-anchor="middle" x="218.5" y="-142.8" font-family="Times,serif" font-size="14.00">3</text>
</g>
<!-- 103 -->
<g id="node4" class="node"><title>103</title>
<ellipse fill="green" stroke="black" cx="27" cy="-18" rx="27" ry="18"/>
<text text-anchor="middle" x="27" y="-13.8" font-family="Times,serif" font-size="14.00">0</text>
</g>
<!-- 102&#45;&gt;103 -->
<g id="edge3" class="edge"><title>102&#45;&gt;103</title>
<path fill="none" stroke="black" d="M86.1278,-87.9825C75.0702,-75.0819 58.9641,-56.2914 46.353,-41.5785"/>
<polygon fill="black" stroke="black" points="48.9261,-39.2023 39.7607,-33.8875 43.6113,-43.7579 48.9261,-39.2023"/>
<text text-anchor="middle" x="71.5" y="-56.8" font-family="Times,serif" font-size="14.00">2</text>
</g>
<!-- 105 -->
<g id="node5" class="node"><title>105</title>
<ellipse fill="red" stroke="black" cx="99" cy="-18" rx="27" ry="18"/>
<text text-anchor="middle" x="99" y="-13.8" font-family="Times,serif" font-size="14.00">&#45;1</text>
</g>
<!-- 102&#45;&gt;105 -->
<g id="edge4" class="edge"><title>102&#45;&gt;105</title>
<path fill="none" stroke="black" d="M99,-85.5951C99,-74.2572 99,-59.2271 99,-46.3153"/>
<polygon fill="black" stroke="black" points="102.5,-46.0951 99,-36.0952 95.5001,-46.0952 102.5,-46.0951"/>
<text text-anchor="middle" x="102.5" y="-56.8" font-family="Times,serif" font-size="14.00">3</text>
</g>
<!-- 108 -->
<g id="node7" class="node"><title>108</title>
<ellipse fill="red" stroke="black" cx="171" cy="-18" rx="27" ry="18"/>
<text text-anchor="middle" x="171" y="-13.8" font-family="Times,serif" font-size="14.00">&#45;1</text>
</g>
<!-- 107&#45;&gt;108 -->
<g id="edge6" class="edge"><title>107&#45;&gt;108</title>
<path fill="none" stroke="black" d="M206.516,-86.804C200.186,-74.7184 191.418,-57.9789 184.177,-44.1565"/>
<polygon fill="black" stroke="black" points="187.198,-42.3806 179.458,-35.1463 180.997,-45.6287 187.198,-42.3806"/>
<text text-anchor="middle" x="199.5" y="-56.8" font-family="Times,serif" font-size="14.00">2</text>
</g>
<!-- 110 -->
<g id="node8" class="node"><title>110</title>
<ellipse fill="red" stroke="black" cx="243" cy="-18" rx="27" ry="18"/>
<text text-anchor="middle" x="243" y="-13.8" font-family="Times,serif" font-size="14.00">&#45;2</text>
</g>
<!-- 107&#45;&gt;110 -->
<g id="edge7" class="edge"><title>107&#45;&gt;110</title>
<path fill="none" stroke="black" d="M220.666,-86.0013C224.563,-74.3116 229.814,-58.5592 234.245,-45.2653"/>
<polygon fill="black" stroke="black" points="237.596,-46.2804 237.438,-35.6867 230.955,-44.0667 237.596,-46.2804"/>
<text text-anchor="middle" x="234.5" y="-56.8" font-family="Times,serif" font-size="14.00">3</text>
</g>
<!-- 113 -->
<g id="node10" class="node"><title>113</title>
<ellipse fill="none" stroke="black" cx="315" cy="-104" rx="27" ry="18"/>
<text text-anchor="middle" x="315" y="-99.8" font-family="Times,serif" font-size="14.00">1</text>
</g>
<!-- 112&#45;&gt;113 -->
<g id="edge9" class="edge"><title>112&#45;&gt;113</title>
<path fill="none" stroke="black" d="M315,-171.595C315,-160.257 315,-145.227 315,-132.315"/>
<polygon fill="black" stroke="black" points="318.5,-132.095 315,-122.095 311.5,-132.095 318.5,-132.095"/>
<text text-anchor="middle" x="318.5" y="-142.8" font-family="Times,serif" font-size="14.00">2</text>
</g>
<!-- 118 -->
<g id="node13" class="node"><title>118</title>
<ellipse fill="green" stroke="black" cx="387" cy="-104" rx="27" ry="18"/>
<text text-anchor="middle" x="387" y="-99.8" font-family="Times,serif" font-size="14.00">0</text>
</g>
<!-- 112&#45;&gt;118 -->
<g id="edge12" class="edge"><title>112&#45;&gt;118</title>
<path fill="none" stroke="black" d="M327.872,-173.982C338.93,-161.082 355.036,-142.291 367.647,-127.579"/>
<polygon fill="black" stroke="black" points="370.389,-129.758 374.239,-119.888 365.074,-125.202 370.389,-129.758"/>
<text text-anchor="middle" x="358.5" y="-142.8" font-family="Times,serif" font-size="14.00">3</text>
</g>
<!-- 114 -->
<g id="node11" class="node"><title>114</title>
<ellipse fill="red" stroke="black" cx="315" cy="-18" rx="27" ry="18"/>
<text text-anchor="middle" x="315" y="-13.8" font-family="Times,serif" font-size="14.00">&#45;1</text>
</g>
<!-- 113&#45;&gt;114 -->
<g id="edge10" class="edge"><title>113&#45;&gt;114</title>
<path fill="none" stroke="black" d="M315,-85.5951C315,-74.2572 315,-59.2271 315,-46.3153"/>
<polygon fill="black" stroke="black" points="318.5,-46.0951 315,-36.0952 311.5,-46.0952 318.5,-46.0951"/>
<text text-anchor="middle" x="318.5" y="-56.8" font-family="Times,serif" font-size="14.00">2</text>
</g>
<!-- 116 -->
<g id="node12" class="node"><title>116</title>
<ellipse fill="red" stroke="black" cx="387" cy="-18" rx="27" ry="18"/>
<text text-anchor="middle" x="387" y="-13.8" font-family="Times,serif" font-size="14.00">&#45;2</text>
</g>
<!-- 113&#45;&gt;116 -->
<g id="edge11" class="edge"><title>113&#45;&gt;116</title>
<path fill="none" stroke="black" d="M327.872,-87.9825C338.93,-75.0819 355.036,-56.2914 367.647,-41.5785"/>
<polygon fill="black" stroke="black" points="370.389,-43.7579 374.239,-33.8875 365.074,-39.2023 370.389,-43.7579"/>
<text text-anchor="middle" x="358.5" y="-56.8" font-family="Times,serif" font-size="14.00">3</text>
</g>
</g>
</svg>
