<?xml version="1.0" encoding="UTF-8" standalone="no"?>
<!DOCTYPE svg PUBLIC "-//W3C//DTD SVG 1.1//EN"
 "http://www.w3.org/Graphics/SVG/1.1/DTD/svg11.dtd">
<!-- Generated by graphviz version 2.36.0 (20140111.2315)
 -->
<!-- Title: G Pages: 1 -->
<svg width="674pt" height="426pt"
 viewBox="0.00 0.00 674.00 426.00" xmlns="http://www.w3.org/2000/svg" xmlns:xlink="http://www.w3.org/1999/xlink">
<g id="graph0" class="graph" transform="scale(1 1) rotate(0) translate(4 422)">
<title>G</title>
<polygon fill="white" stroke="none" points="-4,4 -4,-422 670,-422 670,4 -4,4"/>
<text text-anchor="middle" x="333" y="-390" font-family="Times,serif" font-size="30.00" fill="blue">Number of ways to add up to a sum with k coins</text>
<!-- 100 -->
<g id="node1" class="node"><title>100</title>
<ellipse fill="none" stroke="black" cx="166" cy="-362" rx="27" ry="18"/>
<text text-anchor="middle" x="166" y="-357.8" font-family="Times,serif" font-size="14.00">3</text>
</g>
<!-- 101 -->
<g id="node2" class="node"><title>101</title>
<ellipse fill="none" stroke="black" cx="135" cy="-276" rx="27" ry="18"/>
<text text-anchor="middle" x="135" y="-271.8" font-family="Times,serif" font-size="14.00">2</text>
</g>
<!-- 100&#45;&gt;101 -->
<g id="edge1" class="edge"><title>100&#45;&gt;101</title>
<path fill="none" stroke="black" d="M159.875,-344.404C155.545,-332.669 149.65,-316.696 144.685,-303.244"/>
<polygon fill="black" stroke="black" points="147.858,-301.731 141.112,-293.561 141.291,-304.155 147.858,-301.731"/>
<text text-anchor="middle" x="156.5" y="-314.8" font-family="Times,serif" font-size="14.00">1</text>
</g>
<!-- 109 -->
<g id="node7" class="node"><title>109</title>
<ellipse fill="none" stroke="black" cx="207" cy="-276" rx="27" ry="18"/>
<text text-anchor="middle" x="207" y="-271.8" font-family="Times,serif" font-size="14.00">1</text>
</g>
<!-- 100&#45;&gt;109 -->
<g id="edge6" class="edge"><title>100&#45;&gt;109</title>
<path fill="none" stroke="black" d="M174.1,-344.404C179.922,-332.477 187.88,-316.172 194.512,-302.586"/>
<polygon fill="black" stroke="black" points="197.815,-303.797 199.056,-293.275 191.524,-300.727 197.815,-303.797"/>
<text text-anchor="middle" x="192.5" y="-314.8" font-family="Times,serif" font-size="14.00">2</text>
</g>
<!-- 102 -->
<g id="node3" class="node"><title>102</title>
<ellipse fill="none" stroke="black" cx="63" cy="-190" rx="27" ry="18"/>
<text text-anchor="middle" x="63" y="-185.8" font-family="Times,serif" font-size="14.00">1</text>
</g>
<!-- 101&#45;&gt;102 -->
<g id="edge2" class="edge"><title>101&#45;&gt;102</title>
<path fill="none" stroke="black" d="M122.128,-259.982C111.07,-247.082 94.9641,-228.291 82.353,-213.579"/>
<polygon fill="black" stroke="black" points="84.9261,-211.202 75.7607,-205.888 79.6113,-215.758 84.9261,-211.202"/>
<text text-anchor="middle" x="107.5" y="-228.8" font-family="Times,serif" font-size="14.00">1</text>
</g>
<!-- 107 -->
<g id="node6" class="node"><title>107</title>
<ellipse fill="green" stroke="black" cx="135" cy="-190" rx="27" ry="18"/>
<text text-anchor="middle" x="135" y="-185.8" font-family="Times,serif" font-size="14.00">0</text>
</g>
<!-- 101&#45;&gt;107 -->
<g id="edge5" class="edge"><title>101&#45;&gt;107</title>
<path fill="none" stroke="black" d="M135,-257.595C135,-246.257 135,-231.227 135,-218.315"/>
<polygon fill="black" stroke="black" points="138.5,-218.095 135,-208.095 131.5,-218.095 138.5,-218.095"/>
<text text-anchor="middle" x="138.5" y="-228.8" font-family="Times,serif" font-size="14.00">2</text>
</g>
<!-- 103 -->
<g id="node4" class="node"><title>103</title>
<ellipse fill="green" stroke="black" cx="27" cy="-104" rx="27" ry="18"/>
<text text-anchor="middle" x="27" y="-99.8" font-family="Times,serif" font-size="14.00">0</text>
</g>
<!-- 102&#45;&gt;103 -->
<g id="edge3" class="edge"><title>102&#45;&gt;103</title>
<path fill="none" stroke="black" d="M55.8876,-172.404C50.8089,-160.554 43.8781,-144.382 38.0783,-130.849"/>
<polygon fill="black" stroke="black" points="41.2539,-129.374 34.0977,-121.561 34.8199,-132.131 41.2539,-129.374"/>
<text text-anchor="middle" x="51.5" y="-142.8" font-family="Times,serif" font-size="14.00">1</text>
</g>
<!-- 105 -->
<g id="node5" class="node"><title>105</title>
<ellipse fill="red" stroke="black" cx="99" cy="-104" rx="27" ry="18"/>
<text text-anchor="middle" x="99" y="-99.8" font-family="Times,serif" font-size="14.00">&#45;1</text>
</g>
<!-- 102&#45;&gt;105 -->
<g id="edge4" class="edge"><title>102&#45;&gt;105</title>
<path fill="none" stroke="black" d="M70.1124,-172.404C75.1911,-160.554 82.1219,-144.382 87.9217,-130.849"/>
<polygon fill="black" stroke="black" points="91.1801,-132.131 91.9023,-121.561 84.7461,-129.374 91.1801,-132.131"/>
<text text-anchor="middle" x="87.5" y="-142.8" font-family="Times,serif" font-size="14.00">2</text>
</g>
<!-- 110 -->
<g id="node8" class="node"><title>110</title>
<ellipse fill="green" stroke="black" cx="207" cy="-190" rx="27" ry="18"/>
<text text-anchor="middle" x="207" y="-185.8" font-family="Times,serif" font-size="14.00">0</text>
</g>
<!-- 109&#45;&gt;110 -->
<g id="edge7" class="edge"><title>109&#45;&gt;110</title>
<path fill="none" stroke="black" d="M207,-257.595C207,-246.257 207,-231.227 207,-218.315"/>
<polygon fill="black" stroke="black" points="210.5,-218.095 207,-208.095 203.5,-218.095 210.5,-218.095"/>
<text text-anchor="middle" x="210.5" y="-228.8" font-family="Times,serif" font-size="14.00">1</text>
</g>
<!-- 112 -->
<g id="node9" class="node"><title>112</title>
<ellipse fill="red" stroke="black" cx="279" cy="-190" rx="27" ry="18"/>
<text text-anchor="middle" x="279" y="-185.8" font-family="Times,serif" font-size="14.00">&#45;1</text>
</g>
<!-- 109&#45;&gt;112 -->
<g id="edge8" class="edge"><title>109&#45;&gt;112</title>
<path fill="none" stroke="black" d="M219.872,-259.982C230.93,-247.082 247.036,-228.291 259.647,-213.579"/>
<polygon fill="black" stroke="black" points="262.389,-215.758 266.239,-205.888 257.074,-211.202 262.389,-215.758"/>
<text text-anchor="middle" x="251.5" y="-228.8" font-family="Times,serif" font-size="14.00">2</text>
</g>
<!-- root -->
<g id="node10" class="node"><title>root</title>
<ellipse fill="none" stroke="black" cx="488" cy="-362" rx="27" ry="18"/>
<text text-anchor="middle" x="488" y="-357.8" font-family="Times,serif" font-size="14.00">3,2</text>
</g>
<!-- le10 -->
<g id="node11" class="node"><title>le10</title>
<ellipse fill="none" stroke="black" cx="459" cy="-276" rx="27" ry="18"/>
<text text-anchor="middle" x="459" y="-271.8" font-family="Times,serif" font-size="14.00">2,2</text>
</g>
<!-- root&#45;&gt;le10 -->
<g id="edge9" class="edge"><title>root&#45;&gt;le10</title>
<path fill="none" stroke="black" d="M482.271,-344.404C478.245,-332.745 472.776,-316.903 468.151,-303.507"/>
<polygon fill="black" stroke="black" points="471.389,-302.159 464.817,-293.849 464.772,-304.443 471.389,-302.159"/>
<text text-anchor="middle" x="486.555" y="-314.8" font-family="Times,serif" font-size="14.00">c=1</text>
</g>
<!-- le19 -->
<g id="node20" class="node"><title>le19</title>
<ellipse fill="none" stroke="black" cx="567" cy="-276" rx="27" ry="18"/>
<text text-anchor="middle" x="567" y="-271.8" font-family="Times,serif" font-size="14.00">3,1</text>
</g>
<!-- root&#45;&gt;le19 -->
<g id="edge18" class="edge"><title>root&#45;&gt;le19</title>
<path fill="none" stroke="black" d="M501.761,-346.368C514.033,-333.319 532.177,-314.027 546.217,-299.099"/>
<polygon fill="black" stroke="black" points="548.831,-301.428 553.132,-291.746 543.731,-296.633 548.831,-301.428"/>
<text text-anchor="middle" x="542.331" y="-314.8" font-family="Times,serif" font-size="14.00">k&#45;1</text>
</g>
<!-- le11 -->
<g id="node12" class="node"><title>le11</title>
<ellipse fill="none" stroke="black" cx="351" cy="-190" rx="27" ry="18"/>
<text text-anchor="middle" x="351" y="-185.8" font-family="Times,serif" font-size="14.00">1,2</text>
</g>
<!-- le10&#45;&gt;le11 -->
<g id="edge10" class="edge"><title>le10&#45;&gt;le11</title>
<path fill="none" stroke="black" d="M442.125,-261.875C424.397,-248.086 396.321,-226.25 376.016,-210.457"/>
<polygon fill="black" stroke="black" points="378.155,-207.687 368.113,-204.31 373.858,-213.212 378.155,-207.687"/>
<text text-anchor="middle" x="422.555" y="-228.8" font-family="Times,serif" font-size="14.00">c=1</text>
</g>
<!-- le16 -->
<g id="node17" class="node"><title>le16</title>
<ellipse fill="none" stroke="black" cx="459" cy="-190" rx="27" ry="18"/>
<text text-anchor="middle" x="459" y="-185.8" font-family="Times,serif" font-size="14.00">2,1</text>
</g>
<!-- le10&#45;&gt;le16 -->
<g id="edge15" class="edge"><title>le10&#45;&gt;le16</title>
<path fill="none" stroke="black" d="M459,-257.595C459,-246.257 459,-231.227 459,-218.315"/>
<polygon fill="black" stroke="black" points="462.5,-218.095 459,-208.095 455.5,-218.095 462.5,-218.095"/>
<text text-anchor="middle" x="468.331" y="-228.8" font-family="Times,serif" font-size="14.00">k&#45;1</text>
</g>
<!-- le12 -->
<g id="node13" class="node"><title>le12</title>
<ellipse fill="green" stroke="black" cx="279" cy="-104" rx="27" ry="18"/>
<text text-anchor="middle" x="279" y="-99.8" font-family="Times,serif" font-size="14.00">0,2</text>
</g>
<!-- le11&#45;&gt;le12 -->
<g id="edge11" class="edge"><title>le11&#45;&gt;le12</title>
<path fill="none" stroke="black" d="M338.128,-173.982C327.07,-161.082 310.964,-142.291 298.353,-127.579"/>
<polygon fill="black" stroke="black" points="300.926,-125.202 291.761,-119.888 295.611,-129.758 300.926,-125.202"/>
<text text-anchor="middle" x="330.555" y="-142.8" font-family="Times,serif" font-size="14.00">c=1</text>
</g>
<!-- le13 -->
<g id="node14" class="node"><title>le13</title>
<ellipse fill="none" stroke="black" cx="351" cy="-104" rx="27" ry="18"/>
<text text-anchor="middle" x="351" y="-99.8" font-family="Times,serif" font-size="14.00">1,1</text>
</g>
<!-- le11&#45;&gt;le13 -->
<g id="edge12" class="edge"><title>le11&#45;&gt;le13</title>
<path fill="none" stroke="black" d="M351,-171.595C351,-160.257 351,-145.227 351,-132.315"/>
<polygon fill="black" stroke="black" points="354.5,-132.095 351,-122.095 347.5,-132.095 354.5,-132.095"/>
<text text-anchor="middle" x="360.331" y="-142.8" font-family="Times,serif" font-size="14.00">k&#45;1</text>
</g>
<!-- le14 -->
<g id="node15" class="node"><title>le14</title>
<ellipse fill="red" stroke="black" cx="315" cy="-18" rx="27" ry="18"/>
<text text-anchor="middle" x="315" y="-13.8" font-family="Times,serif" font-size="14.00">&#45;1,1</text>
</g>
<!-- le13&#45;&gt;le14 -->
<g id="edge13" class="edge"><title>le13&#45;&gt;le14</title>
<path fill="none" stroke="black" d="M343.888,-86.4043C338.809,-74.5542 331.878,-58.3822 326.078,-44.8493"/>
<polygon fill="black" stroke="black" points="329.254,-43.3739 322.098,-35.5612 322.82,-46.1314 329.254,-43.3739"/>
<text text-anchor="middle" x="346.555" y="-56.8" font-family="Times,serif" font-size="14.00">c=2</text>
</g>
<!-- le15 -->
<g id="node16" class="node"><title>le15</title>
<ellipse fill="red" stroke="black" cx="387" cy="-18" rx="27" ry="18"/>
<text text-anchor="middle" x="387" y="-13.8" font-family="Times,serif" font-size="14.00">1,0</text>
</g>
<!-- le13&#45;&gt;le15 -->
<g id="edge14" class="edge"><title>le13&#45;&gt;le15</title>
<path fill="none" stroke="black" d="M358.112,-86.4043C363.191,-74.5542 370.122,-58.3822 375.922,-44.8493"/>
<polygon fill="black" stroke="black" points="379.18,-46.1314 379.902,-35.5612 372.746,-43.3739 379.18,-46.1314"/>
<text text-anchor="middle" x="381.331" y="-56.8" font-family="Times,serif" font-size="14.00">k&#45;1</text>
</g>
<!-- le17 -->
<g id="node18" class="node"><title>le17</title>
<ellipse fill="green" stroke="black" cx="423" cy="-104" rx="27" ry="18"/>
<text text-anchor="middle" x="423" y="-99.8" font-family="Times,serif" font-size="14.00">0,1</text>
</g>
<!-- le16&#45;&gt;le17 -->
<g id="edge16" class="edge"><title>le16&#45;&gt;le17</title>
<path fill="none" stroke="black" d="M451.888,-172.404C446.809,-160.554 439.878,-144.382 434.078,-130.849"/>
<polygon fill="black" stroke="black" points="437.254,-129.374 430.098,-121.561 430.82,-132.131 437.254,-129.374"/>
<text text-anchor="middle" x="454.555" y="-142.8" font-family="Times,serif" font-size="14.00">c=2</text>
</g>
<!-- le18 -->
<g id="node19" class="node"><title>le18</title>
<ellipse fill="red" stroke="black" cx="495" cy="-104" rx="27" ry="18"/>
<text text-anchor="middle" x="495" y="-99.8" font-family="Times,serif" font-size="14.00">2,0</text>
</g>
<!-- le16&#45;&gt;le18 -->
<g id="edge17" class="edge"><title>le16&#45;&gt;le18</title>
<path fill="none" stroke="black" d="M466.112,-172.404C471.191,-160.554 478.122,-144.382 483.922,-130.849"/>
<polygon fill="black" stroke="black" points="487.18,-132.131 487.902,-121.561 480.746,-129.374 487.18,-132.131"/>
<text text-anchor="middle" x="489.331" y="-142.8" font-family="Times,serif" font-size="14.00">k&#45;1</text>
</g>
<!-- le20 -->
<g id="node21" class="node"><title>le20</title>
<ellipse fill="none" stroke="black" cx="567" cy="-190" rx="27" ry="18"/>
<text text-anchor="middle" x="567" y="-185.8" font-family="Times,serif" font-size="14.00">1,1</text>
</g>
<!-- le19&#45;&gt;le20 -->
<g id="edge19" class="edge"><title>le19&#45;&gt;le20</title>
<path fill="none" stroke="black" d="M567,-257.595C567,-246.257 567,-231.227 567,-218.315"/>
<polygon fill="black" stroke="black" points="570.5,-218.095 567,-208.095 563.5,-218.095 570.5,-218.095"/>
<text text-anchor="middle" x="577.555" y="-228.8" font-family="Times,serif" font-size="14.00">c=2</text>
</g>
<!-- le23 -->
<g id="node24" class="node"><title>le23</title>
<ellipse fill="red" stroke="black" cx="639" cy="-190" rx="27" ry="18"/>
<text text-anchor="middle" x="639" y="-185.8" font-family="Times,serif" font-size="14.00">3,0</text>
</g>
<!-- le19&#45;&gt;le23 -->
<g id="edge22" class="edge"><title>le19&#45;&gt;le23</title>
<path fill="none" stroke="black" d="M579.872,-259.982C590.93,-247.082 607.036,-228.291 619.647,-213.579"/>
<polygon fill="black" stroke="black" points="622.389,-215.758 626.239,-205.888 617.074,-211.202 622.389,-215.758"/>
<text text-anchor="middle" x="617.331" y="-228.8" font-family="Times,serif" font-size="14.00">k&#45;1</text>
</g>
<!-- le21 -->
<g id="node22" class="node"><title>le21</title>
<ellipse fill="red" stroke="black" cx="567" cy="-104" rx="27" ry="18"/>
<text text-anchor="middle" x="567" y="-99.8" font-family="Times,serif" font-size="14.00">&#45;1,1</text>
</g>
<!-- le20&#45;&gt;le21 -->
<g id="edge20" class="edge"><title>le20&#45;&gt;le21</title>
<path fill="none" stroke="black" d="M567,-171.595C567,-160.257 567,-145.227 567,-132.315"/>
<polygon fill="black" stroke="black" points="570.5,-132.095 567,-122.095 563.5,-132.095 570.5,-132.095"/>
<text text-anchor="middle" x="577.555" y="-142.8" font-family="Times,serif" font-size="14.00">c=2</text>
</g>
<!-- le22 -->
<g id="node23" class="node"><title>le22</title>
<ellipse fill="red" stroke="black" cx="639" cy="-104" rx="27" ry="18"/>
<text text-anchor="middle" x="639" y="-99.8" font-family="Times,serif" font-size="14.00">1,0</text>
</g>
<!-- le20&#45;&gt;le22 -->
<g id="edge21" class="edge"><title>le20&#45;&gt;le22</title>
<path fill="none" stroke="black" d="M579.872,-173.982C590.93,-161.082 607.036,-142.291 619.647,-127.579"/>
<polygon fill="black" stroke="black" points="622.389,-129.758 626.239,-119.888 617.074,-125.202 622.389,-129.758"/>
<text text-anchor="middle" x="617.331" y="-142.8" font-family="Times,serif" font-size="14.00">k&#45;1</text>
</g>
</g>
</svg>
