<?xml version="1.0" encoding="UTF-8" standalone="no"?>
<!DOCTYPE svg PUBLIC "-//W3C//DTD SVG 1.1//EN"
 "http://www.w3.org/Graphics/SVG/1.1/DTD/svg11.dtd">
<!-- Generated by graphviz version 2.36.0 (20140111.2315)
 -->
<!-- Title: G Pages: 1 -->
<svg width="1034pt" height="130pt"
 viewBox="0.00 0.00 1034.00 130.00" xmlns="http://www.w3.org/2000/svg" xmlns:xlink="http://www.w3.org/1999/xlink">
<g id="graph0" class="graph" transform="scale(1 1) rotate(0) translate(4 126)">
<title>G</title>
<polygon fill="white" stroke="none" points="-4,4 -4,-126 1030,-126 1030,4 -4,4"/>
<!-- 0 -->
<g id="node1" class="node"><title>0</title>
<ellipse fill="green" stroke="black" cx="27" cy="-104" rx="27" ry="18"/>
<text text-anchor="middle" x="27" y="-99.8" font-family="Times,serif" font-size="14.00">0</text>
</g>
<!-- 100 -->
<g id="node2" class="node"><title>100</title>
<ellipse fill="none" stroke="black" cx="99" cy="-104" rx="27" ry="18"/>
<text text-anchor="middle" x="99" y="-99.8" font-family="Times,serif" font-size="14.00">1</text>
</g>
<!-- 10 -->
<g id="node3" class="node"><title>10</title>
<ellipse fill="red" stroke="black" cx="63" cy="-18" rx="27" ry="18"/>
<text text-anchor="middle" x="63" y="-13.8" font-family="Times,serif" font-size="14.00">&#45;1</text>
</g>
<!-- 100&#45;&gt;10 -->
<g id="edge1" class="edge"><title>100&#45;&gt;10</title>
<path fill="none" stroke="black" d="M91.8876,-86.4043C86.8089,-74.5542 79.8781,-58.3822 74.0783,-44.8493"/>
<polygon fill="black" stroke="black" points="77.2539,-43.3739 70.0977,-35.5612 70.8199,-46.1314 77.2539,-43.3739"/>
<text text-anchor="middle" x="87.5" y="-56.8" font-family="Times,serif" font-size="14.00">2</text>
</g>
<!-- 11 -->
<g id="node4" class="node"><title>11</title>
<ellipse fill="red" stroke="black" cx="135" cy="-18" rx="27" ry="18"/>
<text text-anchor="middle" x="135" y="-13.8" font-family="Times,serif" font-size="14.00">&#45;2</text>
</g>
<!-- 100&#45;&gt;11 -->
<g id="edge2" class="edge"><title>100&#45;&gt;11</title>
<path fill="none" stroke="black" d="M106.112,-86.4043C111.191,-74.5542 118.122,-58.3822 123.922,-44.8493"/>
<polygon fill="black" stroke="black" points="127.18,-46.1314 127.902,-35.5612 120.746,-43.3739 127.18,-46.1314"/>
<text text-anchor="middle" x="123.5" y="-56.8" font-family="Times,serif" font-size="14.00">3</text>
</g>
<!-- 101 -->
<g id="node5" class="node"><title>101</title>
<ellipse fill="none" stroke="black" cx="261" cy="-104" rx="27" ry="18"/>
<text text-anchor="middle" x="261" y="-99.8" font-family="Times,serif" font-size="14.00">2</text>
</g>
<!-- 12 -->
<g id="node6" class="node"><title>12</title>
<ellipse fill="green" stroke="black" cx="207" cy="-18" rx="27" ry="18"/>
<text text-anchor="middle" x="207" y="-13.8" font-family="Times,serif" font-size="14.00">0</text>
</g>
<!-- 101&#45;&gt;12 -->
<g id="edge3" class="edge"><title>101&#45;&gt;12</title>
<path fill="none" stroke="black" d="M250.843,-87.2002C242.923,-74.8809 231.785,-57.5543 222.717,-43.4484"/>
<polygon fill="black" stroke="black" points="225.463,-41.248 217.111,-34.7289 219.575,-45.0334 225.463,-41.248"/>
<text text-anchor="middle" x="241.5" y="-56.8" font-family="Times,serif" font-size="14.00">2</text>
</g>
<!-- 13 -->
<g id="node7" class="node"><title>13</title>
<ellipse fill="none" stroke="black" cx="279" cy="-18" rx="27" ry="18"/>
<text text-anchor="middle" x="279" y="-13.8" font-family="Times,serif" font-size="14.00">1</text>
</g>
<!-- 101&#45;&gt;13 -->
<g id="edge4" class="edge"><title>101&#45;&gt;13</title>
<path fill="none" stroke="black" d="M264.643,-86.0013C267.107,-74.5018 270.413,-59.0709 273.232,-45.9164"/>
<polygon fill="black" stroke="black" points="276.69,-46.4848 275.363,-35.9734 269.845,-45.018 276.69,-46.4848"/>
<text text-anchor="middle" x="275.5" y="-56.8" font-family="Times,serif" font-size="14.00">3</text>
</g>
<!-- 102 -->
<g id="node8" class="node"><title>102</title>
<ellipse fill="none" stroke="black" cx="369" cy="-104" rx="27" ry="18"/>
<text text-anchor="middle" x="369" y="-99.8" font-family="Times,serif" font-size="14.00">3</text>
</g>
<!-- 14 -->
<g id="node9" class="node"><title>14</title>
<ellipse fill="none" stroke="black" cx="351" cy="-18" rx="27" ry="18"/>
<text text-anchor="middle" x="351" y="-13.8" font-family="Times,serif" font-size="14.00">1</text>
</g>
<!-- 102&#45;&gt;14 -->
<g id="edge5" class="edge"><title>102&#45;&gt;14</title>
<path fill="none" stroke="black" d="M365.357,-86.0013C362.893,-74.5018 359.587,-59.0709 356.768,-45.9164"/>
<polygon fill="black" stroke="black" points="360.155,-45.018 354.637,-35.9734 353.31,-46.4848 360.155,-45.018"/>
<text text-anchor="middle" x="365.5" y="-56.8" font-family="Times,serif" font-size="14.00">2</text>
</g>
<!-- 15 -->
<g id="node10" class="node"><title>15</title>
<ellipse fill="green" stroke="black" cx="423" cy="-18" rx="27" ry="18"/>
<text text-anchor="middle" x="423" y="-13.8" font-family="Times,serif" font-size="14.00">0</text>
</g>
<!-- 102&#45;&gt;15 -->
<g id="edge6" class="edge"><title>102&#45;&gt;15</title>
<path fill="none" stroke="black" d="M379.157,-87.2002C387.077,-74.8809 398.215,-57.5543 407.283,-43.4484"/>
<polygon fill="black" stroke="black" points="410.425,-45.0334 412.889,-34.7289 404.537,-41.248 410.425,-45.0334"/>
<text text-anchor="middle" x="403.5" y="-56.8" font-family="Times,serif" font-size="14.00">3</text>
</g>
<!-- 103 -->
<g id="node11" class="node"><title>103</title>
<ellipse fill="none" stroke="black" cx="531" cy="-104" rx="27" ry="18"/>
<text text-anchor="middle" x="531" y="-99.8" font-family="Times,serif" font-size="14.00">4</text>
</g>
<!-- 16 -->
<g id="node12" class="node"><title>16</title>
<ellipse fill="none" stroke="black" cx="495" cy="-18" rx="27" ry="18"/>
<text text-anchor="middle" x="495" y="-13.8" font-family="Times,serif" font-size="14.00">2</text>
</g>
<!-- 103&#45;&gt;16 -->
<g id="edge7" class="edge"><title>103&#45;&gt;16</title>
<path fill="none" stroke="black" d="M523.888,-86.4043C518.809,-74.5542 511.878,-58.3822 506.078,-44.8493"/>
<polygon fill="black" stroke="black" points="509.254,-43.3739 502.098,-35.5612 502.82,-46.1314 509.254,-43.3739"/>
<text text-anchor="middle" x="519.5" y="-56.8" font-family="Times,serif" font-size="14.00">2</text>
</g>
<!-- 17 -->
<g id="node13" class="node"><title>17</title>
<ellipse fill="none" stroke="black" cx="567" cy="-18" rx="27" ry="18"/>
<text text-anchor="middle" x="567" y="-13.8" font-family="Times,serif" font-size="14.00">1</text>
</g>
<!-- 103&#45;&gt;17 -->
<g id="edge8" class="edge"><title>103&#45;&gt;17</title>
<path fill="none" stroke="black" d="M538.112,-86.4043C543.191,-74.5542 550.122,-58.3822 555.922,-44.8493"/>
<polygon fill="black" stroke="black" points="559.18,-46.1314 559.902,-35.5612 552.746,-43.3739 559.18,-46.1314"/>
<text text-anchor="middle" x="555.5" y="-56.8" font-family="Times,serif" font-size="14.00">3</text>
</g>
<!-- 104 -->
<g id="node14" class="node"><title>104</title>
<ellipse fill="none" stroke="black" cx="675" cy="-104" rx="27" ry="18"/>
<text text-anchor="middle" x="675" y="-99.8" font-family="Times,serif" font-size="14.00">5</text>
</g>
<!-- 18 -->
<g id="node15" class="node"><title>18</title>
<ellipse fill="none" stroke="black" cx="639" cy="-18" rx="27" ry="18"/>
<text text-anchor="middle" x="639" y="-13.8" font-family="Times,serif" font-size="14.00">3</text>
</g>
<!-- 104&#45;&gt;18 -->
<g id="edge9" class="edge"><title>104&#45;&gt;18</title>
<path fill="none" stroke="black" d="M667.888,-86.4043C662.809,-74.5542 655.878,-58.3822 650.078,-44.8493"/>
<polygon fill="black" stroke="black" points="653.254,-43.3739 646.098,-35.5612 646.82,-46.1314 653.254,-43.3739"/>
<text text-anchor="middle" x="662.5" y="-56.8" font-family="Times,serif" font-size="14.00">2</text>
</g>
<!-- 19 -->
<g id="node16" class="node"><title>19</title>
<ellipse fill="none" stroke="black" cx="711" cy="-18" rx="27" ry="18"/>
<text text-anchor="middle" x="711" y="-13.8" font-family="Times,serif" font-size="14.00">2</text>
</g>
<!-- 104&#45;&gt;19 -->
<g id="edge10" class="edge"><title>104&#45;&gt;19</title>
<path fill="none" stroke="black" d="M682.112,-86.4043C687.191,-74.5542 694.122,-58.3822 699.922,-44.8493"/>
<polygon fill="black" stroke="black" points="703.18,-46.1314 703.902,-35.5612 696.746,-43.3739 703.18,-46.1314"/>
<text text-anchor="middle" x="698.5" y="-56.8" font-family="Times,serif" font-size="14.00">3</text>
</g>
<!-- 105 -->
<g id="node17" class="node"><title>105</title>
<ellipse fill="none" stroke="black" cx="819" cy="-104" rx="27" ry="18"/>
<text text-anchor="middle" x="819" y="-99.8" font-family="Times,serif" font-size="14.00">6</text>
</g>
<!-- 20 -->
<g id="node18" class="node"><title>20</title>
<ellipse fill="none" stroke="black" cx="783" cy="-18" rx="27" ry="18"/>
<text text-anchor="middle" x="783" y="-13.8" font-family="Times,serif" font-size="14.00">4</text>
</g>
<!-- 105&#45;&gt;20 -->
<g id="edge11" class="edge"><title>105&#45;&gt;20</title>
<path fill="none" stroke="black" d="M811.888,-86.4043C806.809,-74.5542 799.878,-58.3822 794.078,-44.8493"/>
<polygon fill="black" stroke="black" points="797.254,-43.3739 790.098,-35.5612 790.82,-46.1314 797.254,-43.3739"/>
<text text-anchor="middle" x="806.5" y="-56.8" font-family="Times,serif" font-size="14.00">2</text>
</g>
<!-- 21 -->
<g id="node19" class="node"><title>21</title>
<ellipse fill="none" stroke="black" cx="855" cy="-18" rx="27" ry="18"/>
<text text-anchor="middle" x="855" y="-13.8" font-family="Times,serif" font-size="14.00">3</text>
</g>
<!-- 105&#45;&gt;21 -->
<g id="edge12" class="edge"><title>105&#45;&gt;21</title>
<path fill="none" stroke="black" d="M826.112,-86.4043C831.191,-74.5542 838.122,-58.3822 843.922,-44.8493"/>
<polygon fill="black" stroke="black" points="847.18,-46.1314 847.902,-35.5612 840.746,-43.3739 847.18,-46.1314"/>
<text text-anchor="middle" x="842.5" y="-56.8" font-family="Times,serif" font-size="14.00">3</text>
</g>
<!-- 106 -->
<g id="node20" class="node"><title>106</title>
<ellipse fill="none" stroke="black" cx="963" cy="-104" rx="27" ry="18"/>
<text text-anchor="middle" x="963" y="-99.8" font-family="Times,serif" font-size="14.00">7</text>
</g>
<!-- 22 -->
<g id="node21" class="node"><title>22</title>
<ellipse fill="none" stroke="black" cx="927" cy="-18" rx="27" ry="18"/>
<text text-anchor="middle" x="927" y="-13.8" font-family="Times,serif" font-size="14.00">5</text>
</g>
<!-- 106&#45;&gt;22 -->
<g id="edge13" class="edge"><title>106&#45;&gt;22</title>
<path fill="none" stroke="black" d="M955.888,-86.4043C950.809,-74.5542 943.878,-58.3822 938.078,-44.8493"/>
<polygon fill="black" stroke="black" points="941.254,-43.3739 934.098,-35.5612 934.82,-46.1314 941.254,-43.3739"/>
<text text-anchor="middle" x="950.5" y="-56.8" font-family="Times,serif" font-size="14.00">2</text>
</g>
<!-- 23 -->
<g id="node22" class="node"><title>23</title>
<ellipse fill="none" stroke="black" cx="999" cy="-18" rx="27" ry="18"/>
<text text-anchor="middle" x="999" y="-13.8" font-family="Times,serif" font-size="14.00">4</text>
</g>
<!-- 106&#45;&gt;23 -->
<g id="edge14" class="edge"><title>106&#45;&gt;23</title>
<path fill="none" stroke="black" d="M970.112,-86.4043C975.191,-74.5542 982.122,-58.3822 987.922,-44.8493"/>
<polygon fill="black" stroke="black" points="991.18,-46.1314 991.902,-35.5612 984.746,-43.3739 991.18,-46.1314"/>
<text text-anchor="middle" x="986.5" y="-56.8" font-family="Times,serif" font-size="14.00">3</text>
</g>
</g>
</svg>
