<?xml version="1.0" encoding="UTF-8" standalone="no"?>
<!DOCTYPE svg PUBLIC "-//W3C//DTD SVG 1.1//EN"
 "http://www.w3.org/Graphics/SVG/1.1/DTD/svg11.dtd">
<!-- Generated by graphviz version 2.36.0 (20140111.2315)
 -->
<!-- Title: G Pages: 1 -->
<svg width="314pt" height="332pt"
 viewBox="0.00 0.00 314.00 332.00" xmlns="http://www.w3.org/2000/svg" xmlns:xlink="http://www.w3.org/1999/xlink">
<g id="graph0" class="graph" transform="scale(1 1) rotate(0) translate(4 328)">
<title>G</title>
<polygon fill="white" stroke="none" points="-4,4 -4,-328 310,-328 310,4 -4,4"/>
<!-- 15 -->
<g id="node1" class="node"><title>15</title>
<ellipse fill="none" stroke="black" cx="135" cy="-306" rx="27" ry="18"/>
<text text-anchor="middle" x="135" y="-301.8" font-family="Times,serif" font-size="14.00">15</text>
</g>
<!-- 12 -->
<g id="node2" class="node"><title>12</title>
<ellipse fill="none" stroke="black" cx="99" cy="-234" rx="27" ry="18"/>
<text text-anchor="middle" x="99" y="-229.8" font-family="Times,serif" font-size="14.00">12</text>
</g>
<!-- 15&#45;&gt;12 -->
<g id="edge1" class="edge"><title>15&#45;&gt;12</title>
<path fill="none" stroke="black" d="M126.65,-288.765C122.288,-280.283 116.853,-269.714 111.959,-260.197"/>
<polygon fill="black" stroke="black" points="114.99,-258.439 107.304,-251.147 108.765,-261.641 114.99,-258.439"/>
</g>
<!-- 17 -->
<g id="node5" class="node"><title>17</title>
<ellipse fill="none" stroke="black" cx="171" cy="-234" rx="27" ry="18"/>
<text text-anchor="middle" x="171" y="-229.8" font-family="Times,serif" font-size="14.00">17</text>
</g>
<!-- 15&#45;&gt;17 -->
<g id="edge4" class="edge"><title>15&#45;&gt;17</title>
<path fill="none" stroke="black" d="M143.35,-288.765C147.712,-280.283 153.147,-269.714 158.041,-260.197"/>
<polygon fill="black" stroke="black" points="161.235,-261.641 162.696,-251.147 155.01,-258.439 161.235,-261.641"/>
</g>
<!-- 10 -->
<g id="node3" class="node"><title>10</title>
<ellipse fill="none" stroke="black" cx="27" cy="-162" rx="27" ry="18"/>
<text text-anchor="middle" x="27" y="-157.8" font-family="Times,serif" font-size="14.00">10</text>
</g>
<!-- 12&#45;&gt;10 -->
<g id="edge2" class="edge"><title>12&#45;&gt;10</title>
<path fill="none" stroke="black" d="M84.4297,-218.834C74.2501,-208.938 60.4761,-195.546 48.9694,-184.359"/>
<polygon fill="black" stroke="black" points="51.4055,-181.846 41.7957,-177.385 46.5259,-186.865 51.4055,-181.846"/>
</g>
<!-- 14 -->
<g id="node4" class="node"><title>14</title>
<ellipse fill="none" stroke="black" cx="99" cy="-162" rx="27" ry="18"/>
<text text-anchor="middle" x="99" y="-157.8" font-family="Times,serif" font-size="14.00">14</text>
</g>
<!-- 12&#45;&gt;14 -->
<g id="edge3" class="edge"><title>12&#45;&gt;14</title>
<path fill="none" stroke="black" d="M99,-215.697C99,-207.983 99,-198.712 99,-190.112"/>
<polygon fill="black" stroke="black" points="102.5,-190.104 99,-180.104 95.5001,-190.104 102.5,-190.104"/>
</g>
<!-- 16 -->
<g id="node6" class="node"><title>16</title>
<ellipse fill="none" stroke="black" cx="171" cy="-162" rx="27" ry="18"/>
<text text-anchor="middle" x="171" y="-157.8" font-family="Times,serif" font-size="14.00">16</text>
</g>
<!-- 17&#45;&gt;16 -->
<g id="edge5" class="edge"><title>17&#45;&gt;16</title>
<path fill="none" stroke="black" d="M171,-215.697C171,-207.983 171,-198.712 171,-190.112"/>
<polygon fill="black" stroke="black" points="174.5,-190.104 171,-180.104 167.5,-190.104 174.5,-190.104"/>
</g>
<!-- 19 -->
<g id="node7" class="node"><title>19</title>
<ellipse fill="none" stroke="black" cx="243" cy="-162" rx="27" ry="18"/>
<text text-anchor="middle" x="243" y="-157.8" font-family="Times,serif" font-size="14.00">19</text>
</g>
<!-- 17&#45;&gt;19 -->
<g id="edge6" class="edge"><title>17&#45;&gt;19</title>
<path fill="none" stroke="black" d="M185.57,-218.834C195.75,-208.938 209.524,-195.546 221.031,-184.359"/>
<polygon fill="black" stroke="black" points="223.474,-186.865 228.204,-177.385 218.595,-181.846 223.474,-186.865"/>
</g>
<!-- 18 -->
<g id="node8" class="node"><title>18</title>
<ellipse fill="none" stroke="black" cx="207" cy="-90" rx="27" ry="18"/>
<text text-anchor="middle" x="207" y="-85.8" font-family="Times,serif" font-size="14.00">18</text>
</g>
<!-- 19&#45;&gt;18 -->
<g id="edge7" class="edge"><title>19&#45;&gt;18</title>
<path fill="none" stroke="black" d="M234.65,-144.765C230.288,-136.283 224.853,-125.714 219.959,-116.197"/>
<polygon fill="black" stroke="black" points="222.99,-114.439 215.304,-107.147 216.765,-117.641 222.99,-114.439"/>
</g>
<!-- 130 -->
<g id="node9" class="node"><title>130</title>
<ellipse fill="none" stroke="black" cx="279" cy="-90" rx="27" ry="18"/>
<text text-anchor="middle" x="279" y="-85.8" font-family="Times,serif" font-size="14.00">130</text>
</g>
<!-- 19&#45;&gt;130 -->
<g id="edge8" class="edge"><title>19&#45;&gt;130</title>
<path fill="none" stroke="black" d="M251.35,-144.765C255.712,-136.283 261.147,-125.714 266.041,-116.197"/>
<polygon fill="black" stroke="black" points="269.235,-117.641 270.696,-107.147 263.01,-114.439 269.235,-117.641"/>
</g>
<!-- 20 -->
<g id="node10" class="node"><title>20</title>
<ellipse fill="none" stroke="black" cx="279" cy="-18" rx="27" ry="18"/>
<text text-anchor="middle" x="279" y="-13.8" font-family="Times,serif" font-size="14.00">20</text>
</g>
<!-- 130&#45;&gt;20 -->
<g id="edge9" class="edge"><title>130&#45;&gt;20</title>
<path fill="none" stroke="black" d="M279,-71.6966C279,-63.9827 279,-54.7125 279,-46.1124"/>
<polygon fill="black" stroke="black" points="282.5,-46.1043 279,-36.1043 275.5,-46.1044 282.5,-46.1043"/>
</g>
</g>
</svg>
