<?xml version="1.0" encoding="UTF-8" standalone="no"?>
<!DOCTYPE svg PUBLIC "-//W3C//DTD SVG 1.1//EN"
 "http://www.w3.org/Graphics/SVG/1.1/DTD/svg11.dtd">
<!-- Generated by graphviz version 2.36.0 (20140111.2315)
 -->
<!-- Title: G Pages: 1 -->
<svg width="602pt" height="388pt"
 viewBox="0.00 0.00 602.00 388.00" xmlns="http://www.w3.org/2000/svg" xmlns:xlink="http://www.w3.org/1999/xlink">
<g id="graph0" class="graph" transform="scale(1 1) rotate(0) translate(4 384)">
<title>G</title>
<polygon fill="white" stroke="none" points="-4,4 -4,-384 598,-384 598,4 -4,4"/>
<!-- 100 -->
<g id="node1" class="node"><title>100</title>
<ellipse fill="none" stroke="black" cx="306" cy="-362" rx="27" ry="18"/>
<text text-anchor="middle" x="306" y="-357.8" font-family="Times,serif" font-size="14.00">7</text>
</g>
<!-- 101 -->
<g id="node2" class="node"><title>101</title>
<ellipse fill="none" stroke="black" cx="243" cy="-276" rx="27" ry="18"/>
<text text-anchor="middle" x="243" y="-271.8" font-family="Times,serif" font-size="14.00">5</text>
</g>
<!-- 100&#45;&gt;101 -->
<g id="edge1" class="edge"><title>100&#45;&gt;101</title>
<path fill="none" stroke="black" d="M294.445,-345.593C284.943,-332.923 271.327,-314.769 260.49,-300.319"/>
<polygon fill="black" stroke="black" points="263.282,-298.209 254.482,-292.309 257.682,-302.409 263.282,-298.209"/>
<text text-anchor="middle" x="282.5" y="-314.8" font-family="Times,serif" font-size="14.00">2</text>
</g>
<!-- 115 -->
<g id="node11" class="node"><title>115</title>
<ellipse fill="none" stroke="black" cx="351" cy="-276" rx="27" ry="18"/>
<text text-anchor="middle" x="351" y="-271.8" font-family="Times,serif" font-size="14.00">4</text>
</g>
<!-- 100&#45;&gt;115 -->
<g id="edge10" class="edge"><title>100&#45;&gt;115</title>
<path fill="none" stroke="black" d="M314.676,-344.804C321.151,-332.718 330.118,-315.979 337.523,-302.157"/>
<polygon fill="black" stroke="black" points="340.713,-303.614 342.35,-293.146 334.543,-300.308 340.713,-303.614"/>
<text text-anchor="middle" x="335.5" y="-314.8" font-family="Times,serif" font-size="14.00">3</text>
</g>
<!-- 102 -->
<g id="node3" class="node"><title>102</title>
<ellipse fill="none" stroke="black" cx="135" cy="-190" rx="27" ry="18"/>
<text text-anchor="middle" x="135" y="-185.8" font-family="Times,serif" font-size="14.00">3</text>
</g>
<!-- 101&#45;&gt;102 -->
<g id="edge2" class="edge"><title>101&#45;&gt;102</title>
<path fill="none" stroke="black" d="M226.125,-261.875C208.397,-248.086 180.321,-226.25 160.016,-210.457"/>
<polygon fill="black" stroke="black" points="162.155,-207.687 152.113,-204.31 157.858,-213.212 162.155,-207.687"/>
<text text-anchor="middle" x="199.5" y="-228.8" font-family="Times,serif" font-size="14.00">2</text>
</g>
<!-- 110 -->
<g id="node8" class="node"><title>110</title>
<ellipse fill="none" stroke="black" cx="243" cy="-190" rx="27" ry="18"/>
<text text-anchor="middle" x="243" y="-185.8" font-family="Times,serif" font-size="14.00">2</text>
</g>
<!-- 101&#45;&gt;110 -->
<g id="edge7" class="edge"><title>101&#45;&gt;110</title>
<path fill="none" stroke="black" d="M243,-257.595C243,-246.257 243,-231.227 243,-218.315"/>
<polygon fill="black" stroke="black" points="246.5,-218.095 243,-208.095 239.5,-218.095 246.5,-218.095"/>
<text text-anchor="middle" x="246.5" y="-228.8" font-family="Times,serif" font-size="14.00">3</text>
</g>
<!-- 103 -->
<g id="node4" class="node"><title>103</title>
<ellipse fill="none" stroke="black" cx="63" cy="-104" rx="27" ry="18"/>
<text text-anchor="middle" x="63" y="-99.8" font-family="Times,serif" font-size="14.00">1</text>
</g>
<!-- 102&#45;&gt;103 -->
<g id="edge3" class="edge"><title>102&#45;&gt;103</title>
<path fill="none" stroke="black" d="M122.128,-173.982C111.07,-161.082 94.9641,-142.291 82.353,-127.579"/>
<polygon fill="black" stroke="black" points="84.9261,-125.202 75.7607,-119.888 79.6113,-129.758 84.9261,-125.202"/>
<text text-anchor="middle" x="107.5" y="-142.8" font-family="Times,serif" font-size="14.00">2</text>
</g>
<!-- 108 -->
<g id="node7" class="node"><title>108</title>
<ellipse fill="green" stroke="black" cx="135" cy="-104" rx="27" ry="18"/>
<text text-anchor="middle" x="135" y="-99.8" font-family="Times,serif" font-size="14.00">0</text>
</g>
<!-- 102&#45;&gt;108 -->
<g id="edge6" class="edge"><title>102&#45;&gt;108</title>
<path fill="none" stroke="black" d="M135,-171.595C135,-160.257 135,-145.227 135,-132.315"/>
<polygon fill="black" stroke="black" points="138.5,-132.095 135,-122.095 131.5,-132.095 138.5,-132.095"/>
<text text-anchor="middle" x="138.5" y="-142.8" font-family="Times,serif" font-size="14.00">3</text>
</g>
<!-- 104 -->
<g id="node5" class="node"><title>104</title>
<ellipse fill="red" stroke="black" cx="27" cy="-18" rx="27" ry="18"/>
<text text-anchor="middle" x="27" y="-13.8" font-family="Times,serif" font-size="14.00">&#45;1</text>
</g>
<!-- 103&#45;&gt;104 -->
<g id="edge4" class="edge"><title>103&#45;&gt;104</title>
<path fill="none" stroke="black" d="M55.8876,-86.4043C50.8089,-74.5542 43.8781,-58.3822 38.0783,-44.8493"/>
<polygon fill="black" stroke="black" points="41.2539,-43.3739 34.0977,-35.5612 34.8199,-46.1314 41.2539,-43.3739"/>
<text text-anchor="middle" x="51.5" y="-56.8" font-family="Times,serif" font-size="14.00">2</text>
</g>
<!-- 106 -->
<g id="node6" class="node"><title>106</title>
<ellipse fill="red" stroke="black" cx="99" cy="-18" rx="27" ry="18"/>
<text text-anchor="middle" x="99" y="-13.8" font-family="Times,serif" font-size="14.00">&#45;2</text>
</g>
<!-- 103&#45;&gt;106 -->
<g id="edge5" class="edge"><title>103&#45;&gt;106</title>
<path fill="none" stroke="black" d="M70.1124,-86.4043C75.1911,-74.5542 82.1219,-58.3822 87.9217,-44.8493"/>
<polygon fill="black" stroke="black" points="91.1801,-46.1314 91.9023,-35.5612 84.7461,-43.3739 91.1801,-46.1314"/>
<text text-anchor="middle" x="87.5" y="-56.8" font-family="Times,serif" font-size="14.00">3</text>
</g>
<!-- 111 -->
<g id="node9" class="node"><title>111</title>
<ellipse fill="green" stroke="black" cx="207" cy="-104" rx="27" ry="18"/>
<text text-anchor="middle" x="207" y="-99.8" font-family="Times,serif" font-size="14.00">0</text>
</g>
<!-- 110&#45;&gt;111 -->
<g id="edge8" class="edge"><title>110&#45;&gt;111</title>
<path fill="none" stroke="black" d="M235.888,-172.404C230.809,-160.554 223.878,-144.382 218.078,-130.849"/>
<polygon fill="black" stroke="black" points="221.254,-129.374 214.098,-121.561 214.82,-132.131 221.254,-129.374"/>
<text text-anchor="middle" x="231.5" y="-142.8" font-family="Times,serif" font-size="14.00">2</text>
</g>
<!-- 113 -->
<g id="node10" class="node"><title>113</title>
<ellipse fill="red" stroke="black" cx="279" cy="-104" rx="27" ry="18"/>
<text text-anchor="middle" x="279" y="-99.8" font-family="Times,serif" font-size="14.00">&#45;1</text>
</g>
<!-- 110&#45;&gt;113 -->
<g id="edge9" class="edge"><title>110&#45;&gt;113</title>
<path fill="none" stroke="black" d="M250.112,-172.404C255.191,-160.554 262.122,-144.382 267.922,-130.849"/>
<polygon fill="black" stroke="black" points="271.18,-132.131 271.902,-121.561 264.746,-129.374 271.18,-132.131"/>
<text text-anchor="middle" x="267.5" y="-142.8" font-family="Times,serif" font-size="14.00">3</text>
</g>
<!-- 116 -->
<g id="node12" class="node"><title>116</title>
<ellipse fill="none" stroke="black" cx="351" cy="-190" rx="27" ry="18"/>
<text text-anchor="middle" x="351" y="-185.8" font-family="Times,serif" font-size="14.00">2</text>
</g>
<!-- 115&#45;&gt;116 -->
<g id="edge11" class="edge"><title>115&#45;&gt;116</title>
<path fill="none" stroke="black" d="M351,-257.595C351,-246.257 351,-231.227 351,-218.315"/>
<polygon fill="black" stroke="black" points="354.5,-218.095 351,-208.095 347.5,-218.095 354.5,-218.095"/>
<text text-anchor="middle" x="354.5" y="-228.8" font-family="Times,serif" font-size="14.00">2</text>
</g>
<!-- 121 -->
<g id="node15" class="node"><title>121</title>
<ellipse fill="none" stroke="black" cx="495" cy="-190" rx="27" ry="18"/>
<text text-anchor="middle" x="495" y="-185.8" font-family="Times,serif" font-size="14.00">1</text>
</g>
<!-- 115&#45;&gt;121 -->
<g id="edge14" class="edge"><title>115&#45;&gt;121</title>
<path fill="none" stroke="black" d="M370.721,-263.496C395.464,-249.062 438.081,-224.203 466.403,-207.682"/>
<polygon fill="black" stroke="black" points="468.181,-210.696 475.055,-202.634 464.654,-204.65 468.181,-210.696"/>
<text text-anchor="middle" x="434.5" y="-228.8" font-family="Times,serif" font-size="14.00">3</text>
</g>
<!-- 117 -->
<g id="node13" class="node"><title>117</title>
<ellipse fill="green" stroke="black" cx="351" cy="-104" rx="27" ry="18"/>
<text text-anchor="middle" x="351" y="-99.8" font-family="Times,serif" font-size="14.00">0</text>
</g>
<!-- 116&#45;&gt;117 -->
<g id="edge12" class="edge"><title>116&#45;&gt;117</title>
<path fill="none" stroke="black" d="M351,-171.595C351,-160.257 351,-145.227 351,-132.315"/>
<polygon fill="black" stroke="black" points="354.5,-132.095 351,-122.095 347.5,-132.095 354.5,-132.095"/>
<text text-anchor="middle" x="354.5" y="-142.8" font-family="Times,serif" font-size="14.00">2</text>
</g>
<!-- 119 -->
<g id="node14" class="node"><title>119</title>
<ellipse fill="red" stroke="black" cx="423" cy="-104" rx="27" ry="18"/>
<text text-anchor="middle" x="423" y="-99.8" font-family="Times,serif" font-size="14.00">&#45;1</text>
</g>
<!-- 116&#45;&gt;119 -->
<g id="edge13" class="edge"><title>116&#45;&gt;119</title>
<path fill="none" stroke="black" d="M363.872,-173.982C374.93,-161.082 391.036,-142.291 403.647,-127.579"/>
<polygon fill="black" stroke="black" points="406.389,-129.758 410.239,-119.888 401.074,-125.202 406.389,-129.758"/>
<text text-anchor="middle" x="394.5" y="-142.8" font-family="Times,serif" font-size="14.00">3</text>
</g>
<!-- 122 -->
<g id="node16" class="node"><title>122</title>
<ellipse fill="red" stroke="black" cx="495" cy="-104" rx="27" ry="18"/>
<text text-anchor="middle" x="495" y="-99.8" font-family="Times,serif" font-size="14.00">&#45;1</text>
</g>
<!-- 121&#45;&gt;122 -->
<g id="edge15" class="edge"><title>121&#45;&gt;122</title>
<path fill="none" stroke="black" d="M495,-171.595C495,-160.257 495,-145.227 495,-132.315"/>
<polygon fill="black" stroke="black" points="498.5,-132.095 495,-122.095 491.5,-132.095 498.5,-132.095"/>
<text text-anchor="middle" x="498.5" y="-142.8" font-family="Times,serif" font-size="14.00">2</text>
</g>
<!-- 124 -->
<g id="node17" class="node"><title>124</title>
<ellipse fill="red" stroke="black" cx="567" cy="-104" rx="27" ry="18"/>
<text text-anchor="middle" x="567" y="-99.8" font-family="Times,serif" font-size="14.00">&#45;2</text>
</g>
<!-- 121&#45;&gt;124 -->
<g id="edge16" class="edge"><title>121&#45;&gt;124</title>
<path fill="none" stroke="black" d="M507.872,-173.982C518.93,-161.082 535.036,-142.291 547.647,-127.579"/>
<polygon fill="black" stroke="black" points="550.389,-129.758 554.239,-119.888 545.074,-125.202 550.389,-129.758"/>
<text text-anchor="middle" x="538.5" y="-142.8" font-family="Times,serif" font-size="14.00">3</text>
</g>
</g>
</svg>
