<?xml version="1.0" encoding="UTF-8" standalone="no"?>
<!DOCTYPE svg PUBLIC "-//W3C//DTD SVG 1.1//EN"
 "http://www.w3.org/Graphics/SVG/1.1/DTD/svg11.dtd">
<!-- Generated by graphviz version 2.36.0 (20140111.2315)
 -->
<!-- Title: G Pages: 1 -->
<svg width="1898pt" height="646pt"
 viewBox="0.00 0.00 1898.00 646.00" xmlns="http://www.w3.org/2000/svg" xmlns:xlink="http://www.w3.org/1999/xlink">
<g id="graph0" class="graph" transform="scale(1 1) rotate(0) translate(4 642)">
<title>G</title>
<polygon fill="white" stroke="none" points="-4,4 -4,-642 1894,-642 1894,4 -4,4"/>
<!-- 100 -->
<g id="node1" class="node"><title>100</title>
<ellipse fill="none" stroke="black" cx="1297" cy="-620" rx="27" ry="18"/>
<text text-anchor="middle" x="1297" y="-615.8" font-family="Times,serif" font-size="14.00">7</text>
</g>
<!-- 101 -->
<g id="node2" class="node"><title>101</title>
<ellipse fill="none" stroke="black" cx="1025" cy="-534" rx="27" ry="18"/>
<text text-anchor="middle" x="1025" y="-529.8" font-family="Times,serif" font-size="14.00">6</text>
</g>
<!-- 100&#45;&gt;101 -->
<g id="edge1" class="edge"><title>100&#45;&gt;101</title>
<path fill="none" stroke="black" d="M1272.86,-611.546C1224.27,-596.539 1114.55,-562.654 1058.83,-545.448"/>
<polygon fill="black" stroke="black" points="1059.67,-542.044 1049.08,-542.438 1057.61,-548.733 1059.67,-542.044"/>
<text text-anchor="middle" x="1181.5" y="-572.8" font-family="Times,serif" font-size="14.00">1</text>
</g>
<!-- 163 -->
<g id="node43" class="node"><title>163</title>
<ellipse fill="none" stroke="black" cx="1476" cy="-534" rx="27" ry="18"/>
<text text-anchor="middle" x="1476" y="-529.8" font-family="Times,serif" font-size="14.00">5</text>
</g>
<!-- 100&#45;&gt;163 -->
<g id="edge42" class="edge"><title>100&#45;&gt;163</title>
<path fill="none" stroke="black" d="M1318.59,-608.868C1350.26,-594.007 1409.44,-566.233 1445.53,-549.3"/>
<polygon fill="black" stroke="black" points="1447.04,-552.454 1454.61,-545.038 1444.07,-546.117 1447.04,-552.454"/>
<text text-anchor="middle" x="1401.5" y="-572.8" font-family="Times,serif" font-size="14.00">2</text>
</g>
<!-- 102 -->
<g id="node3" class="node"><title>102</title>
<ellipse fill="none" stroke="black" cx="604" cy="-448" rx="27" ry="18"/>
<text text-anchor="middle" x="604" y="-443.8" font-family="Times,serif" font-size="14.00">5</text>
</g>
<!-- 101&#45;&gt;102 -->
<g id="edge2" class="edge"><title>101&#45;&gt;102</title>
<path fill="none" stroke="black" d="M999.298,-527.872C927.136,-513.474 722.536,-472.651 639.588,-456.101"/>
<polygon fill="black" stroke="black" points="640.124,-452.639 629.632,-454.114 638.754,-459.503 640.124,-452.639"/>
<text text-anchor="middle" x="843.5" y="-486.8" font-family="Times,serif" font-size="14.00">1</text>
</g>
<!-- 140 -->
<g id="node28" class="node"><title>140</title>
<ellipse fill="none" stroke="black" cx="1025" cy="-448" rx="27" ry="18"/>
<text text-anchor="middle" x="1025" y="-443.8" font-family="Times,serif" font-size="14.00">4</text>
</g>
<!-- 101&#45;&gt;140 -->
<g id="edge27" class="edge"><title>101&#45;&gt;140</title>
<path fill="none" stroke="black" d="M1025,-515.595C1025,-504.257 1025,-489.227 1025,-476.315"/>
<polygon fill="black" stroke="black" points="1028.5,-476.095 1025,-466.095 1021.5,-476.095 1028.5,-476.095"/>
<text text-anchor="middle" x="1028.5" y="-486.8" font-family="Times,serif" font-size="14.00">2</text>
</g>
<!-- 103 -->
<g id="node4" class="node"><title>103</title>
<ellipse fill="none" stroke="black" cx="395" cy="-362" rx="27" ry="18"/>
<text text-anchor="middle" x="395" y="-357.8" font-family="Times,serif" font-size="14.00">4</text>
</g>
<!-- 102&#45;&gt;103 -->
<g id="edge3" class="edge"><title>102&#45;&gt;103</title>
<path fill="none" stroke="black" d="M581.235,-437.851C543.938,-422.86 469.708,-393.026 427.088,-375.897"/>
<polygon fill="black" stroke="black" points="428.32,-372.62 417.736,-372.138 425.71,-379.115 428.32,-372.62"/>
<text text-anchor="middle" x="516.5" y="-400.8" font-family="Times,serif" font-size="14.00">1</text>
</g>
<!-- 126 -->
<g id="node19" class="node"><title>126</title>
<ellipse fill="none" stroke="black" cx="604" cy="-362" rx="27" ry="18"/>
<text text-anchor="middle" x="604" y="-357.8" font-family="Times,serif" font-size="14.00">3</text>
</g>
<!-- 102&#45;&gt;126 -->
<g id="edge18" class="edge"><title>102&#45;&gt;126</title>
<path fill="none" stroke="black" d="M604,-429.595C604,-418.257 604,-403.227 604,-390.315"/>
<polygon fill="black" stroke="black" points="607.5,-390.095 604,-380.095 600.5,-390.095 607.5,-390.095"/>
<text text-anchor="middle" x="607.5" y="-400.8" font-family="Times,serif" font-size="14.00">2</text>
</g>
<!-- 104 -->
<g id="node5" class="node"><title>104</title>
<ellipse fill="none" stroke="black" cx="251" cy="-276" rx="27" ry="18"/>
<text text-anchor="middle" x="251" y="-271.8" font-family="Times,serif" font-size="14.00">3</text>
</g>
<!-- 103&#45;&gt;104 -->
<g id="edge4" class="edge"><title>103&#45;&gt;104</title>
<path fill="none" stroke="black" d="M375.279,-349.496C350.536,-335.062 307.919,-310.203 279.597,-293.682"/>
<polygon fill="black" stroke="black" points="281.346,-290.65 270.945,-288.634 277.819,-296.696 281.346,-290.65"/>
<text text-anchor="middle" x="335.5" y="-314.8" font-family="Times,serif" font-size="14.00">1</text>
</g>
<!-- 118 -->
<g id="node14" class="node"><title>118</title>
<ellipse fill="none" stroke="black" cx="395" cy="-276" rx="27" ry="18"/>
<text text-anchor="middle" x="395" y="-271.8" font-family="Times,serif" font-size="14.00">2</text>
</g>
<!-- 103&#45;&gt;118 -->
<g id="edge13" class="edge"><title>103&#45;&gt;118</title>
<path fill="none" stroke="black" d="M395,-343.595C395,-332.257 395,-317.227 395,-304.315"/>
<polygon fill="black" stroke="black" points="398.5,-304.095 395,-294.095 391.5,-304.095 398.5,-304.095"/>
<text text-anchor="middle" x="398.5" y="-314.8" font-family="Times,serif" font-size="14.00">2</text>
</g>
<!-- 105 -->
<g id="node6" class="node"><title>105</title>
<ellipse fill="none" stroke="black" cx="135" cy="-190" rx="27" ry="18"/>
<text text-anchor="middle" x="135" y="-185.8" font-family="Times,serif" font-size="14.00">2</text>
</g>
<!-- 104&#45;&gt;105 -->
<g id="edge5" class="edge"><title>104&#45;&gt;105</title>
<path fill="none" stroke="black" d="M233.382,-262.242C214.134,-248.304 183.108,-225.836 161.047,-209.861"/>
<polygon fill="black" stroke="black" points="162.936,-206.908 152.784,-203.878 158.83,-212.578 162.936,-206.908"/>
<text text-anchor="middle" x="203.5" y="-228.8" font-family="Times,serif" font-size="14.00">1</text>
</g>
<!-- 113 -->
<g id="node11" class="node"><title>113</title>
<ellipse fill="none" stroke="black" cx="251" cy="-190" rx="27" ry="18"/>
<text text-anchor="middle" x="251" y="-185.8" font-family="Times,serif" font-size="14.00">1</text>
</g>
<!-- 104&#45;&gt;113 -->
<g id="edge10" class="edge"><title>104&#45;&gt;113</title>
<path fill="none" stroke="black" d="M251,-257.595C251,-246.257 251,-231.227 251,-218.315"/>
<polygon fill="black" stroke="black" points="254.5,-218.095 251,-208.095 247.5,-218.095 254.5,-218.095"/>
<text text-anchor="middle" x="254.5" y="-228.8" font-family="Times,serif" font-size="14.00">2</text>
</g>
<!-- 106 -->
<g id="node7" class="node"><title>106</title>
<ellipse fill="none" stroke="black" cx="63" cy="-104" rx="27" ry="18"/>
<text text-anchor="middle" x="63" y="-99.8" font-family="Times,serif" font-size="14.00">1</text>
</g>
<!-- 105&#45;&gt;106 -->
<g id="edge6" class="edge"><title>105&#45;&gt;106</title>
<path fill="none" stroke="black" d="M122.128,-173.982C111.07,-161.082 94.9641,-142.291 82.353,-127.579"/>
<polygon fill="black" stroke="black" points="84.9261,-125.202 75.7607,-119.888 79.6113,-129.758 84.9261,-125.202"/>
<text text-anchor="middle" x="107.5" y="-142.8" font-family="Times,serif" font-size="14.00">1</text>
</g>
<!-- 111 -->
<g id="node10" class="node"><title>111</title>
<ellipse fill="green" stroke="black" cx="135" cy="-104" rx="27" ry="18"/>
<text text-anchor="middle" x="135" y="-99.8" font-family="Times,serif" font-size="14.00">0</text>
</g>
<!-- 105&#45;&gt;111 -->
<g id="edge9" class="edge"><title>105&#45;&gt;111</title>
<path fill="none" stroke="black" d="M135,-171.595C135,-160.257 135,-145.227 135,-132.315"/>
<polygon fill="black" stroke="black" points="138.5,-132.095 135,-122.095 131.5,-132.095 138.5,-132.095"/>
<text text-anchor="middle" x="138.5" y="-142.8" font-family="Times,serif" font-size="14.00">2</text>
</g>
<!-- 107 -->
<g id="node8" class="node"><title>107</title>
<ellipse fill="green" stroke="black" cx="27" cy="-18" rx="27" ry="18"/>
<text text-anchor="middle" x="27" y="-13.8" font-family="Times,serif" font-size="14.00">0</text>
</g>
<!-- 106&#45;&gt;107 -->
<g id="edge7" class="edge"><title>106&#45;&gt;107</title>
<path fill="none" stroke="black" d="M55.8876,-86.4043C50.8089,-74.5542 43.8781,-58.3822 38.0783,-44.8493"/>
<polygon fill="black" stroke="black" points="41.2539,-43.3739 34.0977,-35.5612 34.8199,-46.1314 41.2539,-43.3739"/>
<text text-anchor="middle" x="51.5" y="-56.8" font-family="Times,serif" font-size="14.00">1</text>
</g>
<!-- 109 -->
<g id="node9" class="node"><title>109</title>
<ellipse fill="red" stroke="black" cx="99" cy="-18" rx="27" ry="18"/>
<text text-anchor="middle" x="99" y="-13.8" font-family="Times,serif" font-size="14.00">&#45;1</text>
</g>
<!-- 106&#45;&gt;109 -->
<g id="edge8" class="edge"><title>106&#45;&gt;109</title>
<path fill="none" stroke="black" d="M70.1124,-86.4043C75.1911,-74.5542 82.1219,-58.3822 87.9217,-44.8493"/>
<polygon fill="black" stroke="black" points="91.1801,-46.1314 91.9023,-35.5612 84.7461,-43.3739 91.1801,-46.1314"/>
<text text-anchor="middle" x="87.5" y="-56.8" font-family="Times,serif" font-size="14.00">2</text>
</g>
<!-- 114 -->
<g id="node12" class="node"><title>114</title>
<ellipse fill="green" stroke="black" cx="207" cy="-104" rx="27" ry="18"/>
<text text-anchor="middle" x="207" y="-99.8" font-family="Times,serif" font-size="14.00">0</text>
</g>
<!-- 113&#45;&gt;114 -->
<g id="edge11" class="edge"><title>113&#45;&gt;114</title>
<path fill="none" stroke="black" d="M242.516,-172.804C236.186,-160.718 227.418,-143.979 220.177,-130.157"/>
<polygon fill="black" stroke="black" points="223.198,-128.381 215.458,-121.146 216.997,-131.629 223.198,-128.381"/>
<text text-anchor="middle" x="235.5" y="-142.8" font-family="Times,serif" font-size="14.00">1</text>
</g>
<!-- 116 -->
<g id="node13" class="node"><title>116</title>
<ellipse fill="red" stroke="black" cx="279" cy="-104" rx="27" ry="18"/>
<text text-anchor="middle" x="279" y="-99.8" font-family="Times,serif" font-size="14.00">&#45;1</text>
</g>
<!-- 113&#45;&gt;116 -->
<g id="edge12" class="edge"><title>113&#45;&gt;116</title>
<path fill="none" stroke="black" d="M256.666,-172.001C260.563,-160.312 265.814,-144.559 270.245,-131.265"/>
<polygon fill="black" stroke="black" points="273.596,-132.28 273.438,-121.687 266.955,-130.067 273.596,-132.28"/>
<text text-anchor="middle" x="270.5" y="-142.8" font-family="Times,serif" font-size="14.00">2</text>
</g>
<!-- 119 -->
<g id="node15" class="node"><title>119</title>
<ellipse fill="none" stroke="black" cx="351" cy="-190" rx="27" ry="18"/>
<text text-anchor="middle" x="351" y="-185.8" font-family="Times,serif" font-size="14.00">1</text>
</g>
<!-- 118&#45;&gt;119 -->
<g id="edge14" class="edge"><title>118&#45;&gt;119</title>
<path fill="none" stroke="black" d="M386.516,-258.804C380.186,-246.718 371.418,-229.979 364.177,-216.157"/>
<polygon fill="black" stroke="black" points="367.198,-214.381 359.458,-207.146 360.997,-217.629 367.198,-214.381"/>
<text text-anchor="middle" x="379.5" y="-228.8" font-family="Times,serif" font-size="14.00">1</text>
</g>
<!-- 124 -->
<g id="node18" class="node"><title>124</title>
<ellipse fill="green" stroke="black" cx="423" cy="-190" rx="27" ry="18"/>
<text text-anchor="middle" x="423" y="-185.8" font-family="Times,serif" font-size="14.00">0</text>
</g>
<!-- 118&#45;&gt;124 -->
<g id="edge17" class="edge"><title>118&#45;&gt;124</title>
<path fill="none" stroke="black" d="M400.666,-258.001C404.563,-246.312 409.814,-230.559 414.245,-217.265"/>
<polygon fill="black" stroke="black" points="417.596,-218.28 417.438,-207.687 410.955,-216.067 417.596,-218.28"/>
<text text-anchor="middle" x="414.5" y="-228.8" font-family="Times,serif" font-size="14.00">2</text>
</g>
<!-- 120 -->
<g id="node16" class="node"><title>120</title>
<ellipse fill="green" stroke="black" cx="351" cy="-104" rx="27" ry="18"/>
<text text-anchor="middle" x="351" y="-99.8" font-family="Times,serif" font-size="14.00">0</text>
</g>
<!-- 119&#45;&gt;120 -->
<g id="edge15" class="edge"><title>119&#45;&gt;120</title>
<path fill="none" stroke="black" d="M351,-171.595C351,-160.257 351,-145.227 351,-132.315"/>
<polygon fill="black" stroke="black" points="354.5,-132.095 351,-122.095 347.5,-132.095 354.5,-132.095"/>
<text text-anchor="middle" x="354.5" y="-142.8" font-family="Times,serif" font-size="14.00">1</text>
</g>
<!-- 122 -->
<g id="node17" class="node"><title>122</title>
<ellipse fill="red" stroke="black" cx="423" cy="-104" rx="27" ry="18"/>
<text text-anchor="middle" x="423" y="-99.8" font-family="Times,serif" font-size="14.00">&#45;1</text>
</g>
<!-- 119&#45;&gt;122 -->
<g id="edge16" class="edge"><title>119&#45;&gt;122</title>
<path fill="none" stroke="black" d="M363.872,-173.982C374.93,-161.082 391.036,-142.291 403.647,-127.579"/>
<polygon fill="black" stroke="black" points="406.389,-129.758 410.239,-119.888 401.074,-125.202 406.389,-129.758"/>
<text text-anchor="middle" x="395.5" y="-142.8" font-family="Times,serif" font-size="14.00">2</text>
</g>
<!-- 127 -->
<g id="node20" class="node"><title>127</title>
<ellipse fill="none" stroke="black" cx="567" cy="-276" rx="27" ry="18"/>
<text text-anchor="middle" x="567" y="-271.8" font-family="Times,serif" font-size="14.00">2</text>
</g>
<!-- 126&#45;&gt;127 -->
<g id="edge19" class="edge"><title>126&#45;&gt;127</title>
<path fill="none" stroke="black" d="M596.69,-344.404C591.47,-332.554 584.347,-316.382 578.386,-302.849"/>
<polygon fill="black" stroke="black" points="581.529,-301.302 574.295,-293.561 575.123,-304.124 581.529,-301.302"/>
<text text-anchor="middle" x="591.5" y="-314.8" font-family="Times,serif" font-size="14.00">1</text>
</g>
<!-- 135 -->
<g id="node25" class="node"><title>135</title>
<ellipse fill="none" stroke="black" cx="639" cy="-276" rx="27" ry="18"/>
<text text-anchor="middle" x="639" y="-271.8" font-family="Times,serif" font-size="14.00">1</text>
</g>
<!-- 126&#45;&gt;135 -->
<g id="edge24" class="edge"><title>126&#45;&gt;135</title>
<path fill="none" stroke="black" d="M610.915,-344.404C615.852,-332.554 622.591,-316.382 628.229,-302.849"/>
<polygon fill="black" stroke="black" points="631.484,-304.138 632.099,-293.561 625.023,-301.446 631.484,-304.138"/>
<text text-anchor="middle" x="627.5" y="-314.8" font-family="Times,serif" font-size="14.00">2</text>
</g>
<!-- 128 -->
<g id="node21" class="node"><title>128</title>
<ellipse fill="none" stroke="black" cx="495" cy="-190" rx="27" ry="18"/>
<text text-anchor="middle" x="495" y="-185.8" font-family="Times,serif" font-size="14.00">1</text>
</g>
<!-- 127&#45;&gt;128 -->
<g id="edge20" class="edge"><title>127&#45;&gt;128</title>
<path fill="none" stroke="black" d="M554.128,-259.982C543.07,-247.082 526.964,-228.291 514.353,-213.579"/>
<polygon fill="black" stroke="black" points="516.926,-211.202 507.761,-205.888 511.611,-215.758 516.926,-211.202"/>
<text text-anchor="middle" x="539.5" y="-228.8" font-family="Times,serif" font-size="14.00">1</text>
</g>
<!-- 133 -->
<g id="node24" class="node"><title>133</title>
<ellipse fill="green" stroke="black" cx="567" cy="-190" rx="27" ry="18"/>
<text text-anchor="middle" x="567" y="-185.8" font-family="Times,serif" font-size="14.00">0</text>
</g>
<!-- 127&#45;&gt;133 -->
<g id="edge23" class="edge"><title>127&#45;&gt;133</title>
<path fill="none" stroke="black" d="M567,-257.595C567,-246.257 567,-231.227 567,-218.315"/>
<polygon fill="black" stroke="black" points="570.5,-218.095 567,-208.095 563.5,-218.095 570.5,-218.095"/>
<text text-anchor="middle" x="570.5" y="-228.8" font-family="Times,serif" font-size="14.00">2</text>
</g>
<!-- 129 -->
<g id="node22" class="node"><title>129</title>
<ellipse fill="green" stroke="black" cx="495" cy="-104" rx="27" ry="18"/>
<text text-anchor="middle" x="495" y="-99.8" font-family="Times,serif" font-size="14.00">0</text>
</g>
<!-- 128&#45;&gt;129 -->
<g id="edge21" class="edge"><title>128&#45;&gt;129</title>
<path fill="none" stroke="black" d="M495,-171.595C495,-160.257 495,-145.227 495,-132.315"/>
<polygon fill="black" stroke="black" points="498.5,-132.095 495,-122.095 491.5,-132.095 498.5,-132.095"/>
<text text-anchor="middle" x="498.5" y="-142.8" font-family="Times,serif" font-size="14.00">1</text>
</g>
<!-- 131 -->
<g id="node23" class="node"><title>131</title>
<ellipse fill="red" stroke="black" cx="567" cy="-104" rx="27" ry="18"/>
<text text-anchor="middle" x="567" y="-99.8" font-family="Times,serif" font-size="14.00">&#45;1</text>
</g>
<!-- 128&#45;&gt;131 -->
<g id="edge22" class="edge"><title>128&#45;&gt;131</title>
<path fill="none" stroke="black" d="M507.872,-173.982C518.93,-161.082 535.036,-142.291 547.647,-127.579"/>
<polygon fill="black" stroke="black" points="550.389,-129.758 554.239,-119.888 545.074,-125.202 550.389,-129.758"/>
<text text-anchor="middle" x="539.5" y="-142.8" font-family="Times,serif" font-size="14.00">2</text>
</g>
<!-- 136 -->
<g id="node26" class="node"><title>136</title>
<ellipse fill="green" stroke="black" cx="639" cy="-190" rx="27" ry="18"/>
<text text-anchor="middle" x="639" y="-185.8" font-family="Times,serif" font-size="14.00">0</text>
</g>
<!-- 135&#45;&gt;136 -->
<g id="edge25" class="edge"><title>135&#45;&gt;136</title>
<path fill="none" stroke="black" d="M639,-257.595C639,-246.257 639,-231.227 639,-218.315"/>
<polygon fill="black" stroke="black" points="642.5,-218.095 639,-208.095 635.5,-218.095 642.5,-218.095"/>
<text text-anchor="middle" x="642.5" y="-228.8" font-family="Times,serif" font-size="14.00">1</text>
</g>
<!-- 138 -->
<g id="node27" class="node"><title>138</title>
<ellipse fill="red" stroke="black" cx="711" cy="-190" rx="27" ry="18"/>
<text text-anchor="middle" x="711" y="-185.8" font-family="Times,serif" font-size="14.00">&#45;1</text>
</g>
<!-- 135&#45;&gt;138 -->
<g id="edge26" class="edge"><title>135&#45;&gt;138</title>
<path fill="none" stroke="black" d="M651.872,-259.982C662.93,-247.082 679.036,-228.291 691.647,-213.579"/>
<polygon fill="black" stroke="black" points="694.389,-215.758 698.239,-205.888 689.074,-211.202 694.389,-215.758"/>
<text text-anchor="middle" x="683.5" y="-228.8" font-family="Times,serif" font-size="14.00">2</text>
</g>
<!-- 141 -->
<g id="node29" class="node"><title>141</title>
<ellipse fill="none" stroke="black" cx="971" cy="-362" rx="27" ry="18"/>
<text text-anchor="middle" x="971" y="-357.8" font-family="Times,serif" font-size="14.00">3</text>
</g>
<!-- 140&#45;&gt;141 -->
<g id="edge28" class="edge"><title>140&#45;&gt;141</title>
<path fill="none" stroke="black" d="M1014.84,-431.2C1006.92,-418.881 995.785,-401.554 986.717,-387.448"/>
<polygon fill="black" stroke="black" points="989.463,-385.248 981.111,-378.729 983.575,-389.033 989.463,-385.248"/>
<text text-anchor="middle" x="1005.5" y="-400.8" font-family="Times,serif" font-size="14.00">1</text>
</g>
<!-- 155 -->
<g id="node38" class="node"><title>155</title>
<ellipse fill="none" stroke="black" cx="1071" cy="-362" rx="27" ry="18"/>
<text text-anchor="middle" x="1071" y="-357.8" font-family="Times,serif" font-size="14.00">2</text>
</g>
<!-- 140&#45;&gt;155 -->
<g id="edge37" class="edge"><title>140&#45;&gt;155</title>
<path fill="none" stroke="black" d="M1033.87,-430.804C1040.49,-418.718 1049.65,-401.979 1057.22,-388.157"/>
<polygon fill="black" stroke="black" points="1060.42,-389.598 1062.16,-379.146 1054.28,-386.236 1060.42,-389.598"/>
<text text-anchor="middle" x="1054.5" y="-400.8" font-family="Times,serif" font-size="14.00">2</text>
</g>
<!-- 142 -->
<g id="node30" class="node"><title>142</title>
<ellipse fill="none" stroke="black" cx="855" cy="-276" rx="27" ry="18"/>
<text text-anchor="middle" x="855" y="-271.8" font-family="Times,serif" font-size="14.00">2</text>
</g>
<!-- 141&#45;&gt;142 -->
<g id="edge29" class="edge"><title>141&#45;&gt;142</title>
<path fill="none" stroke="black" d="M953.382,-348.242C934.134,-334.304 903.108,-311.836 881.047,-295.861"/>
<polygon fill="black" stroke="black" points="882.936,-292.908 872.784,-289.878 878.83,-298.578 882.936,-292.908"/>
<text text-anchor="middle" x="923.5" y="-314.8" font-family="Times,serif" font-size="14.00">1</text>
</g>
<!-- 150 -->
<g id="node35" class="node"><title>150</title>
<ellipse fill="none" stroke="black" cx="971" cy="-276" rx="27" ry="18"/>
<text text-anchor="middle" x="971" y="-271.8" font-family="Times,serif" font-size="14.00">1</text>
</g>
<!-- 141&#45;&gt;150 -->
<g id="edge34" class="edge"><title>141&#45;&gt;150</title>
<path fill="none" stroke="black" d="M971,-343.595C971,-332.257 971,-317.227 971,-304.315"/>
<polygon fill="black" stroke="black" points="974.5,-304.095 971,-294.095 967.5,-304.095 974.5,-304.095"/>
<text text-anchor="middle" x="974.5" y="-314.8" font-family="Times,serif" font-size="14.00">2</text>
</g>
<!-- 143 -->
<g id="node31" class="node"><title>143</title>
<ellipse fill="none" stroke="black" cx="783" cy="-190" rx="27" ry="18"/>
<text text-anchor="middle" x="783" y="-185.8" font-family="Times,serif" font-size="14.00">1</text>
</g>
<!-- 142&#45;&gt;143 -->
<g id="edge30" class="edge"><title>142&#45;&gt;143</title>
<path fill="none" stroke="black" d="M842.128,-259.982C831.07,-247.082 814.964,-228.291 802.353,-213.579"/>
<polygon fill="black" stroke="black" points="804.926,-211.202 795.761,-205.888 799.611,-215.758 804.926,-211.202"/>
<text text-anchor="middle" x="827.5" y="-228.8" font-family="Times,serif" font-size="14.00">1</text>
</g>
<!-- 148 -->
<g id="node34" class="node"><title>148</title>
<ellipse fill="green" stroke="black" cx="855" cy="-190" rx="27" ry="18"/>
<text text-anchor="middle" x="855" y="-185.8" font-family="Times,serif" font-size="14.00">0</text>
</g>
<!-- 142&#45;&gt;148 -->
<g id="edge33" class="edge"><title>142&#45;&gt;148</title>
<path fill="none" stroke="black" d="M855,-257.595C855,-246.257 855,-231.227 855,-218.315"/>
<polygon fill="black" stroke="black" points="858.5,-218.095 855,-208.095 851.5,-218.095 858.5,-218.095"/>
<text text-anchor="middle" x="858.5" y="-228.8" font-family="Times,serif" font-size="14.00">2</text>
</g>
<!-- 144 -->
<g id="node32" class="node"><title>144</title>
<ellipse fill="green" stroke="black" cx="747" cy="-104" rx="27" ry="18"/>
<text text-anchor="middle" x="747" y="-99.8" font-family="Times,serif" font-size="14.00">0</text>
</g>
<!-- 143&#45;&gt;144 -->
<g id="edge31" class="edge"><title>143&#45;&gt;144</title>
<path fill="none" stroke="black" d="M775.888,-172.404C770.809,-160.554 763.878,-144.382 758.078,-130.849"/>
<polygon fill="black" stroke="black" points="761.254,-129.374 754.098,-121.561 754.82,-132.131 761.254,-129.374"/>
<text text-anchor="middle" x="771.5" y="-142.8" font-family="Times,serif" font-size="14.00">1</text>
</g>
<!-- 146 -->
<g id="node33" class="node"><title>146</title>
<ellipse fill="red" stroke="black" cx="819" cy="-104" rx="27" ry="18"/>
<text text-anchor="middle" x="819" y="-99.8" font-family="Times,serif" font-size="14.00">&#45;1</text>
</g>
<!-- 143&#45;&gt;146 -->
<g id="edge32" class="edge"><title>143&#45;&gt;146</title>
<path fill="none" stroke="black" d="M790.112,-172.404C795.191,-160.554 802.122,-144.382 807.922,-130.849"/>
<polygon fill="black" stroke="black" points="811.18,-132.131 811.902,-121.561 804.746,-129.374 811.18,-132.131"/>
<text text-anchor="middle" x="807.5" y="-142.8" font-family="Times,serif" font-size="14.00">2</text>
</g>
<!-- 151 -->
<g id="node36" class="node"><title>151</title>
<ellipse fill="green" stroke="black" cx="927" cy="-190" rx="27" ry="18"/>
<text text-anchor="middle" x="927" y="-185.8" font-family="Times,serif" font-size="14.00">0</text>
</g>
<!-- 150&#45;&gt;151 -->
<g id="edge35" class="edge"><title>150&#45;&gt;151</title>
<path fill="none" stroke="black" d="M962.516,-258.804C956.186,-246.718 947.418,-229.979 940.177,-216.157"/>
<polygon fill="black" stroke="black" points="943.198,-214.381 935.458,-207.146 936.997,-217.629 943.198,-214.381"/>
<text text-anchor="middle" x="955.5" y="-228.8" font-family="Times,serif" font-size="14.00">1</text>
</g>
<!-- 153 -->
<g id="node37" class="node"><title>153</title>
<ellipse fill="red" stroke="black" cx="999" cy="-190" rx="27" ry="18"/>
<text text-anchor="middle" x="999" y="-185.8" font-family="Times,serif" font-size="14.00">&#45;1</text>
</g>
<!-- 150&#45;&gt;153 -->
<g id="edge36" class="edge"><title>150&#45;&gt;153</title>
<path fill="none" stroke="black" d="M976.666,-258.001C980.563,-246.312 985.814,-230.559 990.245,-217.265"/>
<polygon fill="black" stroke="black" points="993.596,-218.28 993.438,-207.687 986.955,-216.067 993.596,-218.28"/>
<text text-anchor="middle" x="990.5" y="-228.8" font-family="Times,serif" font-size="14.00">2</text>
</g>
<!-- 156 -->
<g id="node39" class="node"><title>156</title>
<ellipse fill="none" stroke="black" cx="1071" cy="-276" rx="27" ry="18"/>
<text text-anchor="middle" x="1071" y="-271.8" font-family="Times,serif" font-size="14.00">1</text>
</g>
<!-- 155&#45;&gt;156 -->
<g id="edge38" class="edge"><title>155&#45;&gt;156</title>
<path fill="none" stroke="black" d="M1071,-343.595C1071,-332.257 1071,-317.227 1071,-304.315"/>
<polygon fill="black" stroke="black" points="1074.5,-304.095 1071,-294.095 1067.5,-304.095 1074.5,-304.095"/>
<text text-anchor="middle" x="1074.5" y="-314.8" font-family="Times,serif" font-size="14.00">1</text>
</g>
<!-- 161 -->
<g id="node42" class="node"><title>161</title>
<ellipse fill="green" stroke="black" cx="1143" cy="-276" rx="27" ry="18"/>
<text text-anchor="middle" x="1143" y="-271.8" font-family="Times,serif" font-size="14.00">0</text>
</g>
<!-- 155&#45;&gt;161 -->
<g id="edge41" class="edge"><title>155&#45;&gt;161</title>
<path fill="none" stroke="black" d="M1083.87,-345.982C1094.93,-333.082 1111.04,-314.291 1123.65,-299.579"/>
<polygon fill="black" stroke="black" points="1126.39,-301.758 1130.24,-291.888 1121.07,-297.202 1126.39,-301.758"/>
<text text-anchor="middle" x="1115.5" y="-314.8" font-family="Times,serif" font-size="14.00">2</text>
</g>
<!-- 157 -->
<g id="node40" class="node"><title>157</title>
<ellipse fill="green" stroke="black" cx="1071" cy="-190" rx="27" ry="18"/>
<text text-anchor="middle" x="1071" y="-185.8" font-family="Times,serif" font-size="14.00">0</text>
</g>
<!-- 156&#45;&gt;157 -->
<g id="edge39" class="edge"><title>156&#45;&gt;157</title>
<path fill="none" stroke="black" d="M1071,-257.595C1071,-246.257 1071,-231.227 1071,-218.315"/>
<polygon fill="black" stroke="black" points="1074.5,-218.095 1071,-208.095 1067.5,-218.095 1074.5,-218.095"/>
<text text-anchor="middle" x="1074.5" y="-228.8" font-family="Times,serif" font-size="14.00">1</text>
</g>
<!-- 159 -->
<g id="node41" class="node"><title>159</title>
<ellipse fill="red" stroke="black" cx="1143" cy="-190" rx="27" ry="18"/>
<text text-anchor="middle" x="1143" y="-185.8" font-family="Times,serif" font-size="14.00">&#45;1</text>
</g>
<!-- 156&#45;&gt;159 -->
<g id="edge40" class="edge"><title>156&#45;&gt;159</title>
<path fill="none" stroke="black" d="M1083.87,-259.982C1094.93,-247.082 1111.04,-228.291 1123.65,-213.579"/>
<polygon fill="black" stroke="black" points="1126.39,-215.758 1130.24,-205.888 1121.07,-211.202 1126.39,-215.758"/>
<text text-anchor="middle" x="1115.5" y="-228.8" font-family="Times,serif" font-size="14.00">2</text>
</g>
<!-- 164 -->
<g id="node44" class="node"><title>164</title>
<ellipse fill="none" stroke="black" cx="1476" cy="-448" rx="27" ry="18"/>
<text text-anchor="middle" x="1476" y="-443.8" font-family="Times,serif" font-size="14.00">4</text>
</g>
<!-- 163&#45;&gt;164 -->
<g id="edge43" class="edge"><title>163&#45;&gt;164</title>
<path fill="none" stroke="black" d="M1476,-515.595C1476,-504.257 1476,-489.227 1476,-476.315"/>
<polygon fill="black" stroke="black" points="1479.5,-476.095 1476,-466.095 1472.5,-476.095 1479.5,-476.095"/>
<text text-anchor="middle" x="1479.5" y="-486.8" font-family="Times,serif" font-size="14.00">1</text>
</g>
<!-- 187 -->
<g id="node59" class="node"><title>187</title>
<ellipse fill="none" stroke="black" cx="1701" cy="-448" rx="27" ry="18"/>
<text text-anchor="middle" x="1701" y="-443.8" font-family="Times,serif" font-size="14.00">3</text>
</g>
<!-- 163&#45;&gt;187 -->
<g id="edge58" class="edge"><title>163&#45;&gt;187</title>
<path fill="none" stroke="black" d="M1499.23,-524.327C1539.5,-509.292 1622.37,-478.354 1668.39,-461.174"/>
<polygon fill="black" stroke="black" points="1669.75,-464.402 1677.89,-457.626 1667.3,-457.845 1669.75,-464.402"/>
<text text-anchor="middle" x="1604.5" y="-486.8" font-family="Times,serif" font-size="14.00">2</text>
</g>
<!-- 165 -->
<g id="node45" class="node"><title>165</title>
<ellipse fill="none" stroke="black" cx="1368" cy="-362" rx="27" ry="18"/>
<text text-anchor="middle" x="1368" y="-357.8" font-family="Times,serif" font-size="14.00">3</text>
</g>
<!-- 164&#45;&gt;165 -->
<g id="edge44" class="edge"><title>164&#45;&gt;165</title>
<path fill="none" stroke="black" d="M1459.12,-433.875C1441.4,-420.086 1413.32,-398.25 1393.02,-382.457"/>
<polygon fill="black" stroke="black" points="1395.16,-379.687 1385.11,-376.31 1390.86,-385.212 1395.16,-379.687"/>
<text text-anchor="middle" x="1431.5" y="-400.8" font-family="Times,serif" font-size="14.00">1</text>
</g>
<!-- 179 -->
<g id="node54" class="node"><title>179</title>
<ellipse fill="none" stroke="black" cx="1503" cy="-362" rx="27" ry="18"/>
<text text-anchor="middle" x="1503" y="-357.8" font-family="Times,serif" font-size="14.00">2</text>
</g>
<!-- 164&#45;&gt;179 -->
<g id="edge53" class="edge"><title>164&#45;&gt;179</title>
<path fill="none" stroke="black" d="M1481.46,-430.001C1485.22,-418.312 1490.28,-402.559 1494.56,-389.265"/>
<polygon fill="black" stroke="black" points="1497.91,-390.278 1497.64,-379.687 1491.24,-388.136 1497.91,-390.278"/>
<text text-anchor="middle" x="1494.5" y="-400.8" font-family="Times,serif" font-size="14.00">2</text>
</g>
<!-- 166 -->
<g id="node46" class="node"><title>166</title>
<ellipse fill="none" stroke="black" cx="1287" cy="-276" rx="27" ry="18"/>
<text text-anchor="middle" x="1287" y="-271.8" font-family="Times,serif" font-size="14.00">2</text>
</g>
<!-- 165&#45;&gt;166 -->
<g id="edge45" class="edge"><title>165&#45;&gt;166</title>
<path fill="none" stroke="black" d="M1353.89,-346.368C1341.23,-333.239 1322.48,-313.79 1308.04,-298.824"/>
<polygon fill="black" stroke="black" points="1310.41,-296.233 1300.95,-291.464 1305.37,-301.092 1310.41,-296.233"/>
<text text-anchor="middle" x="1336.5" y="-314.8" font-family="Times,serif" font-size="14.00">1</text>
</g>
<!-- 174 -->
<g id="node51" class="node"><title>174</title>
<ellipse fill="none" stroke="black" cx="1368" cy="-276" rx="27" ry="18"/>
<text text-anchor="middle" x="1368" y="-271.8" font-family="Times,serif" font-size="14.00">1</text>
</g>
<!-- 165&#45;&gt;174 -->
<g id="edge50" class="edge"><title>165&#45;&gt;174</title>
<path fill="none" stroke="black" d="M1368,-343.595C1368,-332.257 1368,-317.227 1368,-304.315"/>
<polygon fill="black" stroke="black" points="1371.5,-304.095 1368,-294.095 1364.5,-304.095 1371.5,-304.095"/>
<text text-anchor="middle" x="1371.5" y="-314.8" font-family="Times,serif" font-size="14.00">2</text>
</g>
<!-- 167 -->
<g id="node47" class="node"><title>167</title>
<ellipse fill="none" stroke="black" cx="1215" cy="-190" rx="27" ry="18"/>
<text text-anchor="middle" x="1215" y="-185.8" font-family="Times,serif" font-size="14.00">1</text>
</g>
<!-- 166&#45;&gt;167 -->
<g id="edge46" class="edge"><title>166&#45;&gt;167</title>
<path fill="none" stroke="black" d="M1274.13,-259.982C1263.07,-247.082 1246.96,-228.291 1234.35,-213.579"/>
<polygon fill="black" stroke="black" points="1236.93,-211.202 1227.76,-205.888 1231.61,-215.758 1236.93,-211.202"/>
<text text-anchor="middle" x="1259.5" y="-228.8" font-family="Times,serif" font-size="14.00">1</text>
</g>
<!-- 172 -->
<g id="node50" class="node"><title>172</title>
<ellipse fill="green" stroke="black" cx="1287" cy="-190" rx="27" ry="18"/>
<text text-anchor="middle" x="1287" y="-185.8" font-family="Times,serif" font-size="14.00">0</text>
</g>
<!-- 166&#45;&gt;172 -->
<g id="edge49" class="edge"><title>166&#45;&gt;172</title>
<path fill="none" stroke="black" d="M1287,-257.595C1287,-246.257 1287,-231.227 1287,-218.315"/>
<polygon fill="black" stroke="black" points="1290.5,-218.095 1287,-208.095 1283.5,-218.095 1290.5,-218.095"/>
<text text-anchor="middle" x="1290.5" y="-228.8" font-family="Times,serif" font-size="14.00">2</text>
</g>
<!-- 168 -->
<g id="node48" class="node"><title>168</title>
<ellipse fill="green" stroke="black" cx="1179" cy="-104" rx="27" ry="18"/>
<text text-anchor="middle" x="1179" y="-99.8" font-family="Times,serif" font-size="14.00">0</text>
</g>
<!-- 167&#45;&gt;168 -->
<g id="edge47" class="edge"><title>167&#45;&gt;168</title>
<path fill="none" stroke="black" d="M1207.89,-172.404C1202.81,-160.554 1195.88,-144.382 1190.08,-130.849"/>
<polygon fill="black" stroke="black" points="1193.25,-129.374 1186.1,-121.561 1186.82,-132.131 1193.25,-129.374"/>
<text text-anchor="middle" x="1203.5" y="-142.8" font-family="Times,serif" font-size="14.00">1</text>
</g>
<!-- 170 -->
<g id="node49" class="node"><title>170</title>
<ellipse fill="red" stroke="black" cx="1251" cy="-104" rx="27" ry="18"/>
<text text-anchor="middle" x="1251" y="-99.8" font-family="Times,serif" font-size="14.00">&#45;1</text>
</g>
<!-- 167&#45;&gt;170 -->
<g id="edge48" class="edge"><title>167&#45;&gt;170</title>
<path fill="none" stroke="black" d="M1222.11,-172.404C1227.19,-160.554 1234.12,-144.382 1239.92,-130.849"/>
<polygon fill="black" stroke="black" points="1243.18,-132.131 1243.9,-121.561 1236.75,-129.374 1243.18,-132.131"/>
<text text-anchor="middle" x="1239.5" y="-142.8" font-family="Times,serif" font-size="14.00">2</text>
</g>
<!-- 175 -->
<g id="node52" class="node"><title>175</title>
<ellipse fill="green" stroke="black" cx="1359" cy="-190" rx="27" ry="18"/>
<text text-anchor="middle" x="1359" y="-185.8" font-family="Times,serif" font-size="14.00">0</text>
</g>
<!-- 174&#45;&gt;175 -->
<g id="edge51" class="edge"><title>174&#45;&gt;175</title>
<path fill="none" stroke="black" d="M1366.18,-258.001C1364.96,-246.616 1363.33,-231.376 1361.93,-218.308"/>
<polygon fill="black" stroke="black" points="1365.36,-217.544 1360.82,-207.973 1358.4,-218.289 1365.36,-217.544"/>
<text text-anchor="middle" x="1368.5" y="-228.8" font-family="Times,serif" font-size="14.00">1</text>
</g>
<!-- 177 -->
<g id="node53" class="node"><title>177</title>
<ellipse fill="red" stroke="black" cx="1431" cy="-190" rx="27" ry="18"/>
<text text-anchor="middle" x="1431" y="-185.8" font-family="Times,serif" font-size="14.00">&#45;1</text>
</g>
<!-- 174&#45;&gt;177 -->
<g id="edge52" class="edge"><title>174&#45;&gt;177</title>
<path fill="none" stroke="black" d="M1379.56,-259.593C1389.06,-246.923 1402.67,-228.769 1413.51,-214.319"/>
<polygon fill="black" stroke="black" points="1416.32,-216.409 1419.52,-206.309 1410.72,-212.209 1416.32,-216.409"/>
<text text-anchor="middle" x="1407.5" y="-228.8" font-family="Times,serif" font-size="14.00">2</text>
</g>
<!-- 180 -->
<g id="node55" class="node"><title>180</title>
<ellipse fill="none" stroke="black" cx="1503" cy="-276" rx="27" ry="18"/>
<text text-anchor="middle" x="1503" y="-271.8" font-family="Times,serif" font-size="14.00">1</text>
</g>
<!-- 179&#45;&gt;180 -->
<g id="edge54" class="edge"><title>179&#45;&gt;180</title>
<path fill="none" stroke="black" d="M1503,-343.595C1503,-332.257 1503,-317.227 1503,-304.315"/>
<polygon fill="black" stroke="black" points="1506.5,-304.095 1503,-294.095 1499.5,-304.095 1506.5,-304.095"/>
<text text-anchor="middle" x="1506.5" y="-314.8" font-family="Times,serif" font-size="14.00">1</text>
</g>
<!-- 185 -->
<g id="node58" class="node"><title>185</title>
<ellipse fill="green" stroke="black" cx="1575" cy="-276" rx="27" ry="18"/>
<text text-anchor="middle" x="1575" y="-271.8" font-family="Times,serif" font-size="14.00">0</text>
</g>
<!-- 179&#45;&gt;185 -->
<g id="edge57" class="edge"><title>179&#45;&gt;185</title>
<path fill="none" stroke="black" d="M1515.87,-345.982C1526.93,-333.082 1543.04,-314.291 1555.65,-299.579"/>
<polygon fill="black" stroke="black" points="1558.39,-301.758 1562.24,-291.888 1553.07,-297.202 1558.39,-301.758"/>
<text text-anchor="middle" x="1546.5" y="-314.8" font-family="Times,serif" font-size="14.00">2</text>
</g>
<!-- 181 -->
<g id="node56" class="node"><title>181</title>
<ellipse fill="green" stroke="black" cx="1503" cy="-190" rx="27" ry="18"/>
<text text-anchor="middle" x="1503" y="-185.8" font-family="Times,serif" font-size="14.00">0</text>
</g>
<!-- 180&#45;&gt;181 -->
<g id="edge55" class="edge"><title>180&#45;&gt;181</title>
<path fill="none" stroke="black" d="M1503,-257.595C1503,-246.257 1503,-231.227 1503,-218.315"/>
<polygon fill="black" stroke="black" points="1506.5,-218.095 1503,-208.095 1499.5,-218.095 1506.5,-218.095"/>
<text text-anchor="middle" x="1506.5" y="-228.8" font-family="Times,serif" font-size="14.00">1</text>
</g>
<!-- 183 -->
<g id="node57" class="node"><title>183</title>
<ellipse fill="red" stroke="black" cx="1575" cy="-190" rx="27" ry="18"/>
<text text-anchor="middle" x="1575" y="-185.8" font-family="Times,serif" font-size="14.00">&#45;1</text>
</g>
<!-- 180&#45;&gt;183 -->
<g id="edge56" class="edge"><title>180&#45;&gt;183</title>
<path fill="none" stroke="black" d="M1515.87,-259.982C1526.93,-247.082 1543.04,-228.291 1555.65,-213.579"/>
<polygon fill="black" stroke="black" points="1558.39,-215.758 1562.24,-205.888 1553.07,-211.202 1558.39,-215.758"/>
<text text-anchor="middle" x="1546.5" y="-228.8" font-family="Times,serif" font-size="14.00">2</text>
</g>
<!-- 188 -->
<g id="node60" class="node"><title>188</title>
<ellipse fill="none" stroke="black" cx="1701" cy="-362" rx="27" ry="18"/>
<text text-anchor="middle" x="1701" y="-357.8" font-family="Times,serif" font-size="14.00">2</text>
</g>
<!-- 187&#45;&gt;188 -->
<g id="edge59" class="edge"><title>187&#45;&gt;188</title>
<path fill="none" stroke="black" d="M1701,-429.595C1701,-418.257 1701,-403.227 1701,-390.315"/>
<polygon fill="black" stroke="black" points="1704.5,-390.095 1701,-380.095 1697.5,-390.095 1704.5,-390.095"/>
<text text-anchor="middle" x="1704.5" y="-400.8" font-family="Times,serif" font-size="14.00">1</text>
</g>
<!-- 196 -->
<g id="node65" class="node"><title>196</title>
<ellipse fill="none" stroke="black" cx="1791" cy="-362" rx="27" ry="18"/>
<text text-anchor="middle" x="1791" y="-357.8" font-family="Times,serif" font-size="14.00">1</text>
</g>
<!-- 187&#45;&gt;196 -->
<g id="edge64" class="edge"><title>187&#45;&gt;196</title>
<path fill="none" stroke="black" d="M1716.27,-432.751C1730.58,-419.396 1752.14,-399.265 1768.44,-384.058"/>
<polygon fill="black" stroke="black" points="1771.04,-386.421 1775.96,-377.039 1766.26,-381.304 1771.04,-386.421"/>
<text text-anchor="middle" x="1754.5" y="-400.8" font-family="Times,serif" font-size="14.00">2</text>
</g>
<!-- 189 -->
<g id="node61" class="node"><title>189</title>
<ellipse fill="none" stroke="black" cx="1647" cy="-276" rx="27" ry="18"/>
<text text-anchor="middle" x="1647" y="-271.8" font-family="Times,serif" font-size="14.00">1</text>
</g>
<!-- 188&#45;&gt;189 -->
<g id="edge60" class="edge"><title>188&#45;&gt;189</title>
<path fill="none" stroke="black" d="M1690.84,-345.2C1682.92,-332.881 1671.78,-315.554 1662.72,-301.448"/>
<polygon fill="black" stroke="black" points="1665.46,-299.248 1657.11,-292.729 1659.57,-303.033 1665.46,-299.248"/>
<text text-anchor="middle" x="1680.5" y="-314.8" font-family="Times,serif" font-size="14.00">1</text>
</g>
<!-- 194 -->
<g id="node64" class="node"><title>194</title>
<ellipse fill="green" stroke="black" cx="1719" cy="-276" rx="27" ry="18"/>
<text text-anchor="middle" x="1719" y="-271.8" font-family="Times,serif" font-size="14.00">0</text>
</g>
<!-- 188&#45;&gt;194 -->
<g id="edge63" class="edge"><title>188&#45;&gt;194</title>
<path fill="none" stroke="black" d="M1704.64,-344.001C1707.11,-332.502 1710.41,-317.071 1713.23,-303.916"/>
<polygon fill="black" stroke="black" points="1716.69,-304.485 1715.36,-293.973 1709.85,-303.018 1716.69,-304.485"/>
<text text-anchor="middle" x="1714.5" y="-314.8" font-family="Times,serif" font-size="14.00">2</text>
</g>
<!-- 190 -->
<g id="node62" class="node"><title>190</title>
<ellipse fill="green" stroke="black" cx="1647" cy="-190" rx="27" ry="18"/>
<text text-anchor="middle" x="1647" y="-185.8" font-family="Times,serif" font-size="14.00">0</text>
</g>
<!-- 189&#45;&gt;190 -->
<g id="edge61" class="edge"><title>189&#45;&gt;190</title>
<path fill="none" stroke="black" d="M1647,-257.595C1647,-246.257 1647,-231.227 1647,-218.315"/>
<polygon fill="black" stroke="black" points="1650.5,-218.095 1647,-208.095 1643.5,-218.095 1650.5,-218.095"/>
<text text-anchor="middle" x="1650.5" y="-228.8" font-family="Times,serif" font-size="14.00">1</text>
</g>
<!-- 192 -->
<g id="node63" class="node"><title>192</title>
<ellipse fill="red" stroke="black" cx="1719" cy="-190" rx="27" ry="18"/>
<text text-anchor="middle" x="1719" y="-185.8" font-family="Times,serif" font-size="14.00">&#45;1</text>
</g>
<!-- 189&#45;&gt;192 -->
<g id="edge62" class="edge"><title>189&#45;&gt;192</title>
<path fill="none" stroke="black" d="M1659.87,-259.982C1670.93,-247.082 1687.04,-228.291 1699.65,-213.579"/>
<polygon fill="black" stroke="black" points="1702.39,-215.758 1706.24,-205.888 1697.07,-211.202 1702.39,-215.758"/>
<text text-anchor="middle" x="1690.5" y="-228.8" font-family="Times,serif" font-size="14.00">2</text>
</g>
<!-- 197 -->
<g id="node66" class="node"><title>197</title>
<ellipse fill="green" stroke="black" cx="1791" cy="-276" rx="27" ry="18"/>
<text text-anchor="middle" x="1791" y="-271.8" font-family="Times,serif" font-size="14.00">0</text>
</g>
<!-- 196&#45;&gt;197 -->
<g id="edge65" class="edge"><title>196&#45;&gt;197</title>
<path fill="none" stroke="black" d="M1791,-343.595C1791,-332.257 1791,-317.227 1791,-304.315"/>
<polygon fill="black" stroke="black" points="1794.5,-304.095 1791,-294.095 1787.5,-304.095 1794.5,-304.095"/>
<text text-anchor="middle" x="1794.5" y="-314.8" font-family="Times,serif" font-size="14.00">1</text>
</g>
<!-- 199 -->
<g id="node67" class="node"><title>199</title>
<ellipse fill="red" stroke="black" cx="1863" cy="-276" rx="27" ry="18"/>
<text text-anchor="middle" x="1863" y="-271.8" font-family="Times,serif" font-size="14.00">&#45;1</text>
</g>
<!-- 196&#45;&gt;199 -->
<g id="edge66" class="edge"><title>196&#45;&gt;199</title>
<path fill="none" stroke="black" d="M1803.87,-345.982C1814.93,-333.082 1831.04,-314.291 1843.65,-299.579"/>
<polygon fill="black" stroke="black" points="1846.39,-301.758 1850.24,-291.888 1841.07,-297.202 1846.39,-301.758"/>
<text text-anchor="middle" x="1834.5" y="-314.8" font-family="Times,serif" font-size="14.00">2</text>
</g>
</g>
</svg>
