<?xml version="1.0" encoding="UTF-8" standalone="no"?>
<!DOCTYPE svg PUBLIC "-//W3C//DTD SVG 1.1//EN"
 "http://www.w3.org/Graphics/SVG/1.1/DTD/svg11.dtd">
<!-- Generated by graphviz version 2.36.0 (20140111.2315)
 -->
<!-- Title: G Pages: 1 -->
<svg width="513pt" height="116pt"
 viewBox="0.00 0.00 513.00 116.00" xmlns="http://www.w3.org/2000/svg" xmlns:xlink="http://www.w3.org/1999/xlink">
<g id="graph0" class="graph" transform="scale(1 1) rotate(0) translate(4 112)">
<title>G</title>
<polygon fill="white" stroke="none" points="-4,4 -4,-112 509,-112 509,4 -4,4"/>
<!-- LinkedList -->
<g id="node1" class="node"><title>LinkedList</title>
<ellipse fill="green" stroke="black" cx="318" cy="-18" rx="48.3713" ry="18"/>
<text text-anchor="middle" x="318" y="-13.8" font-family="Times,serif" font-size="14.00">LinkedList</text>
</g>
<!-- List -->
<g id="node2" class="node"><title>List</title>
<ellipse fill="yellow" stroke="black" cx="180" cy="-90" rx="27" ry="18"/>
<text text-anchor="middle" x="180" y="-85.8" font-family="Times,serif" font-size="14.00">List</text>
</g>
<!-- List&#45;&gt;LinkedList -->
<g id="edge2" class="edge"><title>List&#45;&gt;LinkedList</title>
<path fill="none" stroke="black" d="M200.959,-78.3685C222.314,-67.5363 255.857,-50.522 281.569,-37.4795"/>
<polygon fill="black" stroke="black" points="283.316,-40.5181 290.651,-32.8729 280.149,-34.2753 283.316,-40.5181"/>
</g>
<!-- ArrayList -->
<g id="node4" class="node"><title>ArrayList</title>
<ellipse fill="none" stroke="black" cx="44" cy="-18" rx="44.2314" ry="18"/>
<text text-anchor="middle" x="44" y="-13.8" font-family="Times,serif" font-size="14.00">ArrayList</text>
</g>
<!-- List&#45;&gt;ArrayList -->
<g id="edge1" class="edge"><title>List&#45;&gt;ArrayList</title>
<path fill="none" stroke="black" d="M159.345,-78.3685C138.167,-67.4682 104.826,-50.3078 79.4259,-37.2339"/>
<polygon fill="black" stroke="black" points="80.9573,-34.0858 70.4642,-32.6213 77.7538,-40.3097 80.9573,-34.0858"/>
</g>
<!-- Vector -->
<g id="node5" class="node"><title>Vector</title>
<ellipse fill="none" stroke="black" cx="140" cy="-18" rx="33.2811" ry="18"/>
<text text-anchor="middle" x="140" y="-13.8" font-family="Times,serif" font-size="14.00">Vector</text>
</g>
<!-- List&#45;&gt;Vector -->
<g id="edge3" class="edge"><title>List&#45;&gt;Vector</title>
<path fill="none" stroke="black" d="M170.723,-72.7646C165.945,-64.4043 160.009,-54.0159 154.632,-44.6059"/>
<polygon fill="black" stroke="black" points="157.505,-42.5793 149.505,-35.6334 151.427,-46.0523 157.505,-42.5793"/>
</g>
<!-- Stack -->
<g id="node6" class="node"><title>Stack</title>
<ellipse fill="none" stroke="black" cx="221" cy="-18" rx="29.1364" ry="18"/>
<text text-anchor="middle" x="221" y="-13.8" font-family="Times,serif" font-size="14.00">Stack</text>
</g>
<!-- List&#45;&gt;Stack -->
<g id="edge4" class="edge"><title>List&#45;&gt;Stack</title>
<path fill="none" stroke="black" d="M189.509,-72.7646C194.529,-64.1948 200.796,-53.494 206.415,-43.9004"/>
<polygon fill="black" stroke="black" points="209.508,-45.5451 211.542,-35.1473 203.468,-42.0072 209.508,-45.5451"/>
</g>
<!-- Queue -->
<g id="node3" class="node"><title>Queue</title>
<ellipse fill="yellow" stroke="black" cx="381" cy="-90" rx="33.2811" ry="18"/>
<text text-anchor="middle" x="381" y="-85.8" font-family="Times,serif" font-size="14.00">Queue</text>
</g>
<!-- Queue&#45;&gt;LinkedList -->
<g id="edge5" class="edge"><title>Queue&#45;&gt;LinkedList</title>
<path fill="none" stroke="black" d="M367.018,-73.4647C359.009,-64.5657 348.785,-53.2051 339.748,-43.1644"/>
<polygon fill="black" stroke="black" points="342.112,-40.5588 332.82,-35.4672 336.909,-45.2415 342.112,-40.5588"/>
</g>
<!-- PriorityQueue -->
<g id="node7" class="node"><title>PriorityQueue</title>
<ellipse fill="none" stroke="black" cx="445" cy="-18" rx="60.3149" ry="18"/>
<text text-anchor="middle" x="445" y="-13.8" font-family="Times,serif" font-size="14.00">PriorityQueue</text>
</g>
<!-- Queue&#45;&gt;PriorityQueue -->
<g id="edge6" class="edge"><title>Queue&#45;&gt;PriorityQueue</title>
<path fill="none" stroke="black" d="M395.204,-73.4647C403.42,-64.4776 413.933,-52.9799 423.179,-42.8666"/>
<polygon fill="black" stroke="black" points="425.78,-45.2092 429.944,-35.4672 420.613,-40.4858 425.78,-45.2092"/>
</g>
</g>
</svg>
