<?xml version="1.0" encoding="UTF-8" standalone="no"?>
<!DOCTYPE svg PUBLIC "-//W3C//DTD SVG 1.1//EN"
 "http://www.w3.org/Graphics/SVG/1.1/DTD/svg11.dtd">
<!-- Generated by graphviz version 2.36.0 (20140111.2315)
 -->
<!-- Title: G Pages: 1 -->
<svg width="337pt" height="188pt"
 viewBox="0.00 0.00 337.00 188.00" xmlns="http://www.w3.org/2000/svg" xmlns:xlink="http://www.w3.org/1999/xlink">
<g id="graph0" class="graph" transform="scale(1 1) rotate(0) translate(4 184)">
<title>G</title>
<polygon fill="white" stroke="none" points="-4,4 -4,-184 333,-184 333,4 -4,4"/>
<!-- Map -->
<g id="node1" class="node"><title>Map</title>
<ellipse fill="yellow" stroke="black" cx="155" cy="-162" rx="27" ry="18"/>
<text text-anchor="middle" x="155" y="-157.8" font-family="Times,serif" font-size="14.00">Map</text>
</g>
<!-- HashTable -->
<g id="node2" class="node"><title>HashTable</title>
<ellipse fill="none" stroke="black" cx="47" cy="-90" rx="47.1953" ry="18"/>
<text text-anchor="middle" x="47" y="-85.8" font-family="Times,serif" font-size="14.00">HashTable</text>
</g>
<!-- Map&#45;&gt;HashTable -->
<g id="edge1" class="edge"><title>Map&#45;&gt;HashTable</title>
<path fill="none" stroke="black" d="M136.188,-148.807C120.327,-138.527 97.2938,-123.598 78.6076,-111.486"/>
<polygon fill="black" stroke="black" points="80.3976,-108.476 70.1024,-105.974 76.5903,-114.35 80.3976,-108.476"/>
</g>
<!-- TreeMap -->
<g id="node3" class="node"><title>TreeMap</title>
<ellipse fill="none" stroke="black" cx="155" cy="-90" rx="42.3119" ry="18"/>
<text text-anchor="middle" x="155" y="-85.8" font-family="Times,serif" font-size="14.00">TreeMap</text>
</g>
<!-- Map&#45;&gt;TreeMap -->
<g id="edge2" class="edge"><title>Map&#45;&gt;TreeMap</title>
<path fill="none" stroke="black" d="M155,-143.697C155,-135.983 155,-126.712 155,-118.112"/>
<polygon fill="black" stroke="black" points="158.5,-118.104 155,-108.104 151.5,-118.104 158.5,-118.104"/>
</g>
<!-- HashMap -->
<g id="node4" class="node"><title>HashMap</title>
<ellipse fill="none" stroke="black" cx="260" cy="-90" rx="44.2378" ry="18"/>
<text text-anchor="middle" x="260" y="-85.8" font-family="Times,serif" font-size="14.00">HashMap</text>
</g>
<!-- Map&#45;&gt;HashMap -->
<g id="edge3" class="edge"><title>Map&#45;&gt;HashMap</title>
<path fill="none" stroke="black" d="M173.772,-148.485C189.182,-138.212 211.317,-123.456 229.301,-111.466"/>
<polygon fill="black" stroke="black" points="231.369,-114.294 237.748,-105.834 227.486,-108.469 231.369,-114.294"/>
</g>
<!-- LinkedHashMap -->
<g id="node5" class="node"><title>LinkedHashMap</title>
<ellipse fill="none" stroke="black" cx="260" cy="-18" rx="69.3116" ry="18"/>
<text text-anchor="middle" x="260" y="-13.8" font-family="Times,serif" font-size="14.00">LinkedHashMap</text>
</g>
<!-- HashMap&#45;&gt;LinkedHashMap -->
<g id="edge4" class="edge"><title>HashMap&#45;&gt;LinkedHashMap</title>
<path fill="none" stroke="black" d="M260,-71.6966C260,-63.9827 260,-54.7125 260,-46.1124"/>
<polygon fill="black" stroke="black" points="263.5,-46.1043 260,-36.1043 256.5,-46.1044 263.5,-46.1043"/>
</g>
</g>
</svg>
