<?xml version="1.0" encoding="UTF-8" standalone="no"?>
<!DOCTYPE svg PUBLIC "-//W3C//DTD SVG 1.1//EN"
 "http://www.w3.org/Graphics/SVG/1.1/DTD/svg11.dtd">
<!-- Generated by graphviz version 2.36.0 (20140111.2315)
 -->
<!-- Title: G Pages: 1 -->
<svg width="717pt" height="302pt"
 viewBox="0.00 0.00 717.00 302.00" xmlns="http://www.w3.org/2000/svg" xmlns:xlink="http://www.w3.org/1999/xlink">
<g id="graph0" class="graph" transform="scale(1 1) rotate(0) translate(4 298)">
<title>G</title>
<polygon fill="white" stroke="none" points="-4,4 -4,-298 713,-298 713,4 -4,4"/>
<!-- 100 -->
<g id="node1" class="node"><title>100</title>
<ellipse fill="none" stroke="black" cx="354" cy="-276" rx="46.1593" ry="18"/>
<text text-anchor="middle" x="354" y="-271.8" font-family="Times,serif" font-size="14.00">perm(abc)</text>
</g>
<!-- 101 -->
<g id="node2" class="node"><title>101</title>
<ellipse fill="none" stroke="black" cx="173" cy="-190" rx="55.2742" ry="18"/>
<text text-anchor="middle" x="173" y="-185.8" font-family="Times,serif" font-size="14.00">a + perm(bc)</text>
</g>
<!-- 100&#45;&gt;101 -->
<g id="edge1" class="edge"><title>100&#45;&gt;101</title>
<path fill="none" stroke="black" d="M325.32,-261.69C294.887,-247.567 246.59,-225.152 212.553,-209.356"/>
<polygon fill="black" stroke="black" points="213.902,-206.123 203.357,-205.089 210.955,-212.473 213.902,-206.123"/>
<text text-anchor="middle" x="287.633" y="-228.8" font-family="Times,serif" font-size="14.00">rm a</text>
</g>
<!-- 102 -->
<g id="node3" class="node"><title>102</title>
<ellipse fill="none" stroke="black" cx="354" cy="-190" rx="55.2742" ry="18"/>
<text text-anchor="middle" x="354" y="-185.8" font-family="Times,serif" font-size="14.00">b + perm(ac)</text>
</g>
<!-- 100&#45;&gt;102 -->
<g id="edge2" class="edge"><title>100&#45;&gt;102</title>
<path fill="none" stroke="black" d="M354,-257.595C354,-246.257 354,-231.227 354,-218.315"/>
<polygon fill="black" stroke="black" points="357.5,-218.095 354,-208.095 350.5,-218.095 357.5,-218.095"/>
<text text-anchor="middle" x="367.026" y="-228.8" font-family="Times,serif" font-size="14.00">rm b</text>
</g>
<!-- 103 -->
<g id="node4" class="node"><title>103</title>
<ellipse fill="none" stroke="black" cx="536" cy="-190" rx="55.2742" ry="18"/>
<text text-anchor="middle" x="536" y="-185.8" font-family="Times,serif" font-size="14.00">c + perm(ab)</text>
</g>
<!-- 100&#45;&gt;103 -->
<g id="edge3" class="edge"><title>100&#45;&gt;103</title>
<path fill="none" stroke="black" d="M382.838,-261.69C413.439,-247.567 462.004,-225.152 496.229,-209.356"/>
<polygon fill="black" stroke="black" points="497.862,-212.457 505.475,-205.089 494.928,-206.101 497.862,-212.457"/>
<text text-anchor="middle" x="468.633" y="-228.8" font-family="Times,serif" font-size="14.00">rm c</text>
</g>
<!-- 1000 -->
<g id="node5" class="node"><title>1000</title>
<ellipse fill="none" stroke="black" cx="51" cy="-104" rx="51.3857" ry="18"/>
<text text-anchor="middle" x="51" y="-99.8" font-family="Times,serif" font-size="14.00">b + perm(c)</text>
</g>
<!-- 101&#45;&gt;1000 -->
<g id="edge4" class="edge"><title>101&#45;&gt;1000</title>
<path fill="none" stroke="black" d="M150.339,-173.397C131.079,-160.136 103.245,-140.972 81.9363,-126.3"/>
<polygon fill="black" stroke="black" points="83.7614,-123.308 73.54,-120.519 79.7916,-129.073 83.7614,-123.308"/>
<text text-anchor="middle" x="133.026" y="-142.8" font-family="Times,serif" font-size="14.00">rm b</text>
</g>
<!-- 1001 -->
<g id="node6" class="node"><title>1001</title>
<ellipse fill="none" stroke="black" cx="173" cy="-104" rx="51.3857" ry="18"/>
<text text-anchor="middle" x="173" y="-99.8" font-family="Times,serif" font-size="14.00">c + perm(b)</text>
</g>
<!-- 101&#45;&gt;1001 -->
<g id="edge5" class="edge"><title>101&#45;&gt;1001</title>
<path fill="none" stroke="black" d="M173,-171.595C173,-160.257 173,-145.227 173,-132.315"/>
<polygon fill="black" stroke="black" points="176.5,-132.095 173,-122.095 169.5,-132.095 176.5,-132.095"/>
<text text-anchor="middle" x="185.633" y="-142.8" font-family="Times,serif" font-size="14.00">rm c</text>
</g>
<!-- 2000 -->
<g id="node7" class="node"><title>2000</title>
<ellipse fill="none" stroke="black" cx="294" cy="-104" rx="51.1405" ry="18"/>
<text text-anchor="middle" x="294" y="-99.8" font-family="Times,serif" font-size="14.00">a + perm(c)</text>
</g>
<!-- 102&#45;&gt;2000 -->
<g id="edge6" class="edge"><title>102&#45;&gt;2000</title>
<path fill="none" stroke="black" d="M342.146,-172.404C333.517,-160.324 321.68,-143.753 311.903,-130.064"/>
<polygon fill="black" stroke="black" points="314.49,-127.664 305.829,-121.561 308.794,-131.733 314.49,-127.664"/>
<text text-anchor="middle" x="340.633" y="-142.8" font-family="Times,serif" font-size="14.00">rm a</text>
</g>
<!-- 2001 -->
<g id="node8" class="node"><title>2001</title>
<ellipse fill="none" stroke="black" cx="415" cy="-104" rx="51.1405" ry="18"/>
<text text-anchor="middle" x="415" y="-99.8" font-family="Times,serif" font-size="14.00">c + perm(a)</text>
</g>
<!-- 102&#45;&gt;2001 -->
<g id="edge7" class="edge"><title>102&#45;&gt;2001</title>
<path fill="none" stroke="black" d="M366.052,-172.404C374.908,-160.209 387.088,-143.437 397.082,-129.674"/>
<polygon fill="black" stroke="black" points="399.929,-131.709 402.973,-121.561 394.265,-127.596 399.929,-131.709"/>
<text text-anchor="middle" x="401.633" y="-142.8" font-family="Times,serif" font-size="14.00">rm c</text>
</g>
<!-- 3000 -->
<g id="node9" class="node"><title>3000</title>
<ellipse fill="none" stroke="black" cx="536" cy="-104" rx="51.3857" ry="18"/>
<text text-anchor="middle" x="536" y="-99.8" font-family="Times,serif" font-size="14.00">a + perm(b)</text>
</g>
<!-- 103&#45;&gt;3000 -->
<g id="edge8" class="edge"><title>103&#45;&gt;3000</title>
<path fill="none" stroke="black" d="M536,-171.595C536,-160.257 536,-145.227 536,-132.315"/>
<polygon fill="black" stroke="black" points="539.5,-132.095 536,-122.095 532.5,-132.095 539.5,-132.095"/>
<text text-anchor="middle" x="548.633" y="-142.8" font-family="Times,serif" font-size="14.00">rm a</text>
</g>
<!-- 3001 -->
<g id="node10" class="node"><title>3001</title>
<ellipse fill="none" stroke="black" cx="658" cy="-104" rx="51.3857" ry="18"/>
<text text-anchor="middle" x="658" y="-99.8" font-family="Times,serif" font-size="14.00">b + perm(a)</text>
</g>
<!-- 103&#45;&gt;3001 -->
<g id="edge9" class="edge"><title>103&#45;&gt;3001</title>
<path fill="none" stroke="black" d="M558.661,-173.397C577.921,-160.136 605.755,-140.972 627.064,-126.3"/>
<polygon fill="black" stroke="black" points="629.208,-129.073 635.46,-120.519 625.239,-123.308 629.208,-129.073"/>
<text text-anchor="middle" x="618.026" y="-142.8" font-family="Times,serif" font-size="14.00">rm b</text>
</g>
<!-- 4000 -->
<g id="node11" class="node"><title>4000</title>
<ellipse fill="green" stroke="black" cx="51" cy="-18" rx="47.2523" ry="18"/>
<text text-anchor="middle" x="51" y="-13.8" font-family="Times,serif" font-size="14.00">c + perm()</text>
</g>
<!-- 1000&#45;&gt;4000 -->
<g id="edge10" class="edge"><title>1000&#45;&gt;4000</title>
<path fill="none" stroke="black" d="M51,-85.5951C51,-74.2572 51,-59.2271 51,-46.3153"/>
<polygon fill="black" stroke="black" points="54.5001,-46.0951 51,-36.0952 47.5001,-46.0952 54.5001,-46.0951"/>
<text text-anchor="middle" x="63.6328" y="-56.8" font-family="Times,serif" font-size="14.00">rm c</text>
</g>
<!-- 5000 -->
<g id="node12" class="node"><title>5000</title>
<ellipse fill="green" stroke="black" cx="173" cy="-18" rx="47.4972" ry="18"/>
<text text-anchor="middle" x="173" y="-13.8" font-family="Times,serif" font-size="14.00">b + perm()</text>
</g>
<!-- 1001&#45;&gt;5000 -->
<g id="edge11" class="edge"><title>1001&#45;&gt;5000</title>
<path fill="none" stroke="black" d="M173,-85.5951C173,-74.2572 173,-59.2271 173,-46.3153"/>
<polygon fill="black" stroke="black" points="176.5,-46.0951 173,-36.0952 169.5,-46.0952 176.5,-46.0951"/>
<text text-anchor="middle" x="186.026" y="-56.8" font-family="Times,serif" font-size="14.00">rm b</text>
</g>
<!-- 6000 -->
<g id="node13" class="node"><title>6000</title>
<ellipse fill="green" stroke="black" cx="294" cy="-18" rx="47.2523" ry="18"/>
<text text-anchor="middle" x="294" y="-13.8" font-family="Times,serif" font-size="14.00">c + perm()</text>
</g>
<!-- 2000&#45;&gt;6000 -->
<g id="edge12" class="edge"><title>2000&#45;&gt;6000</title>
<path fill="none" stroke="black" d="M294,-85.5951C294,-74.2572 294,-59.2271 294,-46.3153"/>
<polygon fill="black" stroke="black" points="297.5,-46.0951 294,-36.0952 290.5,-46.0952 297.5,-46.0951"/>
<text text-anchor="middle" x="306.633" y="-56.8" font-family="Times,serif" font-size="14.00">rm c</text>
</g>
<!-- 7000 -->
<g id="node14" class="node"><title>7000</title>
<ellipse fill="green" stroke="black" cx="415" cy="-18" rx="47.2523" ry="18"/>
<text text-anchor="middle" x="415" y="-13.8" font-family="Times,serif" font-size="14.00">a + perm()</text>
</g>
<!-- 2001&#45;&gt;7000 -->
<g id="edge13" class="edge"><title>2001&#45;&gt;7000</title>
<path fill="none" stroke="black" d="M415,-85.5951C415,-74.2572 415,-59.2271 415,-46.3153"/>
<polygon fill="black" stroke="black" points="418.5,-46.0951 415,-36.0952 411.5,-46.0952 418.5,-46.0951"/>
<text text-anchor="middle" x="427.633" y="-56.8" font-family="Times,serif" font-size="14.00">rm a</text>
</g>
<!-- 8000 -->
<g id="node15" class="node"><title>8000</title>
<ellipse fill="green" stroke="black" cx="536" cy="-18" rx="47.4972" ry="18"/>
<text text-anchor="middle" x="536" y="-13.8" font-family="Times,serif" font-size="14.00">b + perm()</text>
</g>
<!-- 3000&#45;&gt;8000 -->
<g id="edge14" class="edge"><title>3000&#45;&gt;8000</title>
<path fill="none" stroke="black" d="M536,-85.5951C536,-74.2572 536,-59.2271 536,-46.3153"/>
<polygon fill="black" stroke="black" points="539.5,-46.0951 536,-36.0952 532.5,-46.0952 539.5,-46.0951"/>
<text text-anchor="middle" x="549.026" y="-56.8" font-family="Times,serif" font-size="14.00">rm b</text>
</g>
<!-- 9000 -->
<g id="node16" class="node"><title>9000</title>
<ellipse fill="green" stroke="black" cx="658" cy="-18" rx="47.2523" ry="18"/>
<text text-anchor="middle" x="658" y="-13.8" font-family="Times,serif" font-size="14.00">a + perm()</text>
</g>
<!-- 3001&#45;&gt;9000 -->
<g id="edge15" class="edge"><title>3001&#45;&gt;9000</title>
<path fill="none" stroke="black" d="M658,-85.5951C658,-74.2572 658,-59.2271 658,-46.3153"/>
<polygon fill="black" stroke="black" points="661.5,-46.0951 658,-36.0952 654.5,-46.0952 661.5,-46.0951"/>
<text text-anchor="middle" x="670.633" y="-56.8" font-family="Times,serif" font-size="14.00">rm a</text>
</g>
</g>
</svg>
