<?xml version="1.0" encoding="UTF-8" standalone="no"?>
<!DOCTYPE svg PUBLIC "-//W3C//DTD SVG 1.1//EN"
 "http://www.w3.org/Graphics/SVG/1.1/DTD/svg11.dtd">
<!-- Generated by graphviz version 2.36.0 (20140111.2315)
 -->
<!-- Title: G Pages: 1 -->
<svg width="593pt" height="732pt"
 viewBox="0.00 0.00 593.00 732.00" xmlns="http://www.w3.org/2000/svg" xmlns:xlink="http://www.w3.org/1999/xlink">
<g id="graph0" class="graph" transform="scale(1 1) rotate(0) translate(4 728)">
<title>G</title>
<polygon fill="white" stroke="none" points="-4,4 -4,-728 589,-728 589,4 -4,4"/>
<!-- 100 -->
<g id="node1" class="node"><title>100</title>
<ellipse fill="none" stroke="black" cx="179" cy="-706" rx="49.3547" ry="18"/>
<text text-anchor="middle" x="179" y="-701.8" font-family="Times,serif" font-size="14.00">2, 2, 2, 2, 2</text>
</g>
<!-- 101 -->
<g id="node2" class="node"><title>101</title>
<ellipse fill="none" stroke="black" cx="179" cy="-620" rx="49.3547" ry="18"/>
<text text-anchor="middle" x="179" y="-615.8" font-family="Times,serif" font-size="14.00">1, 2, 2, 2, 2</text>
</g>
<!-- 100&#45;&gt;101 -->
<g id="edge1" class="edge"><title>100&#45;&gt;101</title>
<path fill="none" stroke="black" d="M179,-687.595C179,-676.257 179,-661.227 179,-648.315"/>
<polygon fill="black" stroke="black" points="182.5,-648.095 179,-638.095 175.5,-648.095 182.5,-648.095"/>
<text text-anchor="middle" x="182.5" y="-658.8" font-family="Times,serif" font-size="14.00">1</text>
</g>
<!-- 102 -->
<g id="node3" class="node"><title>102</title>
<ellipse fill="none" stroke="black" cx="142" cy="-534" rx="41.0885" ry="18"/>
<text text-anchor="middle" x="142" y="-529.8" font-family="Times,serif" font-size="14.00">2, 2, 2, 2</text>
</g>
<!-- 101&#45;&gt;102 -->
<g id="edge2" class="edge"><title>101&#45;&gt;102</title>
<path fill="none" stroke="black" d="M171.512,-602.001C166.347,-590.274 159.38,-574.458 153.513,-561.138"/>
<polygon fill="black" stroke="black" points="156.711,-559.714 149.476,-551.973 150.304,-562.536 156.711,-559.714"/>
<text text-anchor="middle" x="171.945" y="-572.8" font-family="Times,serif" font-size="14.00">1/5</text>
</g>
<!-- 103 -->
<g id="node4" class="node"><title>103</title>
<ellipse fill="none" stroke="black" cx="251" cy="-534" rx="49.3547" ry="18"/>
<text text-anchor="middle" x="251" y="-529.8" font-family="Times,serif" font-size="14.00">1, 1, 2, 2, 2</text>
</g>
<!-- 101&#45;&gt;103 -->
<g id="edge3" class="edge"><title>101&#45;&gt;103</title>
<path fill="none" stroke="black" d="M193.225,-602.404C203.845,-590.014 218.515,-572.899 230.415,-559.016"/>
<polygon fill="black" stroke="black" points="233.199,-561.146 237.05,-551.275 227.884,-556.59 233.199,-561.146"/>
<text text-anchor="middle" x="228.945" y="-572.8" font-family="Times,serif" font-size="14.00">4/5</text>
</g>
<!-- 104 -->
<g id="node5" class="node"><title>104</title>
<ellipse fill="none" stroke="black" cx="188" cy="-448" rx="41.0885" ry="18"/>
<text text-anchor="middle" x="188" y="-443.8" font-family="Times,serif" font-size="14.00">1, 2, 2, 2</text>
</g>
<!-- 103&#45;&gt;104 -->
<g id="edge4" class="edge"><title>103&#45;&gt;104</title>
<path fill="none" stroke="black" d="M238.553,-516.404C229.347,-504.13 216.664,-487.218 206.305,-473.406"/>
<polygon fill="black" stroke="black" points="209.007,-471.175 200.207,-465.275 203.407,-475.375 209.007,-471.175"/>
<text text-anchor="middle" x="232.945" y="-486.8" font-family="Times,serif" font-size="14.00">2/5</text>
</g>
<!-- 105 -->
<g id="node6" class="node"><title>105</title>
<ellipse fill="none" stroke="black" cx="297" cy="-448" rx="49.3547" ry="18"/>
<text text-anchor="middle" x="297" y="-443.8" font-family="Times,serif" font-size="14.00">1, 1, 1, 2, 2</text>
</g>
<!-- 103&#45;&gt;105 -->
<g id="edge5" class="edge"><title>103&#45;&gt;105</title>
<path fill="none" stroke="black" d="M260.309,-516.001C266.793,-504.16 275.56,-488.151 282.899,-474.75"/>
<polygon fill="black" stroke="black" points="285.972,-476.425 287.705,-465.973 279.832,-473.063 285.972,-476.425"/>
<text text-anchor="middle" x="284.945" y="-486.8" font-family="Times,serif" font-size="14.00">3/5</text>
</g>
<!-- 106 -->
<g id="node7" class="node"><title>106</title>
<ellipse fill="none" stroke="black" cx="99" cy="-362" rx="32.324" ry="18"/>
<text text-anchor="middle" x="99" y="-357.8" font-family="Times,serif" font-size="14.00">2, 2, 2</text>
</g>
<!-- 104&#45;&gt;106 -->
<g id="edge6" class="edge"><title>104&#45;&gt;106</title>
<path fill="none" stroke="black" d="M171.26,-431.2C157.453,-418.169 137.709,-399.534 122.348,-385.036"/>
<polygon fill="black" stroke="black" points="124.444,-382.201 114.769,-377.883 119.639,-387.292 124.444,-382.201"/>
<text text-anchor="middle" x="157.945" y="-400.8" font-family="Times,serif" font-size="14.00">1/4</text>
</g>
<!-- 107 -->
<g id="node8" class="node"><title>107</title>
<ellipse fill="none" stroke="black" cx="190" cy="-362" rx="41.0885" ry="18"/>
<text text-anchor="middle" x="190" y="-357.8" font-family="Times,serif" font-size="14.00">1, 1, 2, 2</text>
</g>
<!-- 104&#45;&gt;107 -->
<g id="edge7" class="edge"><title>104&#45;&gt;107</title>
<path fill="none" stroke="black" d="M188.414,-429.595C188.684,-418.257 189.042,-403.227 189.35,-390.315"/>
<polygon fill="black" stroke="black" points="192.854,-390.176 189.593,-380.095 185.856,-390.009 192.854,-390.176"/>
<text text-anchor="middle" x="198.945" y="-400.8" font-family="Times,serif" font-size="14.00">3/4</text>
</g>
<!-- 108 -->
<g id="node9" class="node"><title>108</title>
<ellipse fill="none" stroke="black" cx="294" cy="-362" rx="41.0885" ry="18"/>
<text text-anchor="middle" x="294" y="-357.8" font-family="Times,serif" font-size="14.00">1, 1, 2, 2</text>
</g>
<!-- 105&#45;&gt;108 -->
<g id="edge8" class="edge"><title>105&#45;&gt;108</title>
<path fill="none" stroke="black" d="M296.393,-430.001C295.989,-418.691 295.449,-403.576 294.984,-390.566"/>
<polygon fill="black" stroke="black" points="298.471,-390.13 294.616,-380.262 291.476,-390.38 298.471,-390.13"/>
<text text-anchor="middle" x="303.945" y="-400.8" font-family="Times,serif" font-size="14.00">3/5</text>
</g>
<!-- 109 -->
<g id="node10" class="node"><title>109</title>
<ellipse fill="none" stroke="black" cx="427" cy="-362" rx="49.3547" ry="18"/>
<text text-anchor="middle" x="427" y="-357.8" font-family="Times,serif" font-size="14.00">1, 1, 1, 1, 2</text>
</g>
<!-- 105&#45;&gt;109 -->
<g id="edge9" class="edge"><title>105&#45;&gt;109</title>
<path fill="none" stroke="black" d="M320.241,-431.982C341.094,-418.509 371.89,-398.61 395.054,-383.642"/>
<polygon fill="black" stroke="black" points="397.022,-386.538 403.522,-378.171 393.223,-380.658 397.022,-386.538"/>
<text text-anchor="middle" x="377.945" y="-400.8" font-family="Times,serif" font-size="14.00">2/5</text>
</g>
<!-- 110 -->
<g id="node11" class="node"><title>110</title>
<ellipse fill="none" stroke="black" cx="163" cy="-276" rx="32.324" ry="18"/>
<text text-anchor="middle" x="163" y="-271.8" font-family="Times,serif" font-size="14.00">1, 2, 2</text>
</g>
<!-- 108&#45;&gt;110 -->
<g id="edge12" class="edge"><title>108&#45;&gt;110</title>
<path fill="none" stroke="black" d="M271.778,-346.751C249.899,-332.722 216.361,-311.216 192.311,-295.795"/>
<polygon fill="black" stroke="black" points="193.909,-292.662 183.602,-290.21 190.13,-298.554 193.909,-292.662"/>
<text text-anchor="middle" x="244.945" y="-314.8" font-family="Times,serif" font-size="14.00">2/4</text>
</g>
<!-- 111 -->
<g id="node12" class="node"><title>111</title>
<ellipse fill="none" stroke="black" cx="294" cy="-276" rx="41.0885" ry="18"/>
<text text-anchor="middle" x="294" y="-271.8" font-family="Times,serif" font-size="14.00">1, 1, 1, 2</text>
</g>
<!-- 108&#45;&gt;111 -->
<g id="edge13" class="edge"><title>108&#45;&gt;111</title>
<path fill="none" stroke="black" d="M294,-343.595C294,-332.257 294,-317.227 294,-304.315"/>
<polygon fill="black" stroke="black" points="297.5,-304.095 294,-294.095 290.5,-304.095 297.5,-304.095"/>
<text text-anchor="middle" x="302.945" y="-314.8" font-family="Times,serif" font-size="14.00">2/4</text>
</g>
<!-- 112 -->
<g id="node15" class="node"><title>112</title>
<ellipse fill="none" stroke="black" cx="427" cy="-276" rx="41.0885" ry="18"/>
<text text-anchor="middle" x="427" y="-271.8" font-family="Times,serif" font-size="14.00">1, 1, 1, 2</text>
</g>
<!-- 109&#45;&gt;112 -->
<g id="edge14" class="edge"><title>109&#45;&gt;112</title>
<path fill="none" stroke="black" d="M427,-343.595C427,-332.257 427,-317.227 427,-304.315"/>
<polygon fill="black" stroke="black" points="430.5,-304.095 427,-294.095 423.5,-304.095 430.5,-304.095"/>
<text text-anchor="middle" x="435.945" y="-314.8" font-family="Times,serif" font-size="14.00">4/5</text>
</g>
<!-- 113 -->
<g id="node16" class="node"><title>113</title>
<ellipse fill="none" stroke="black" cx="536" cy="-276" rx="49.3547" ry="18"/>
<text text-anchor="middle" x="536" y="-271.8" font-family="Times,serif" font-size="14.00">1, 1, 1, 1, 1</text>
</g>
<!-- 109&#45;&gt;113 -->
<g id="edge15" class="edge"><title>109&#45;&gt;113</title>
<path fill="none" stroke="black" d="M447.247,-345.397C464.301,-332.254 488.881,-313.312 507.851,-298.693"/>
<polygon fill="black" stroke="black" points="510.077,-301.396 515.862,-292.519 505.805,-295.851 510.077,-301.396"/>
<text text-anchor="middle" x="496.945" y="-314.8" font-family="Times,serif" font-size="14.00">1/5</text>
</g>
<!-- 114 -->
<g id="node17" class="node"><title>114</title>
<ellipse fill="none" stroke="black" cx="86" cy="-190" rx="27" ry="18"/>
<text text-anchor="middle" x="86" y="-185.8" font-family="Times,serif" font-size="14.00">2, 2</text>
</g>
<!-- 110&#45;&gt;114 -->
<g id="edge16" class="edge"><title>110&#45;&gt;114</title>
<path fill="none" stroke="black" d="M148.877,-259.593C137.008,-246.645 119.888,-227.969 106.508,-213.373"/>
<polygon fill="black" stroke="black" points="108.854,-210.752 99.517,-205.746 103.694,-215.482 108.854,-210.752"/>
<text text-anchor="middle" x="138.945" y="-228.8" font-family="Times,serif" font-size="14.00">1/3</text>
</g>
<!-- 115 -->
<g id="node18" class="node"><title>115</title>
<ellipse fill="none" stroke="black" cx="163" cy="-190" rx="32.324" ry="18"/>
<text text-anchor="middle" x="163" y="-185.8" font-family="Times,serif" font-size="14.00">1, 1, 2</text>
</g>
<!-- 110&#45;&gt;115 -->
<g id="edge17" class="edge"><title>110&#45;&gt;115</title>
<path fill="none" stroke="black" d="M163,-257.595C163,-246.257 163,-231.227 163,-218.315"/>
<polygon fill="black" stroke="black" points="166.5,-218.095 163,-208.095 159.5,-218.095 166.5,-218.095"/>
<text text-anchor="middle" x="171.945" y="-228.8" font-family="Times,serif" font-size="14.00">2/3</text>
</g>
<!-- 116 -->
<g id="node13" class="node"><title>116</title>
<ellipse fill="none" stroke="black" cx="245" cy="-190" rx="32.324" ry="18"/>
<text text-anchor="middle" x="245" y="-185.8" font-family="Times,serif" font-size="14.00">1, 1, 2</text>
</g>
<!-- 111&#45;&gt;116 -->
<g id="edge10" class="edge"><title>111&#45;&gt;116</title>
<path fill="none" stroke="black" d="M284.319,-258.404C277.294,-246.361 267.665,-229.855 259.695,-216.191"/>
<polygon fill="black" stroke="black" points="262.556,-214.15 254.494,-207.275 256.51,-217.677 262.556,-214.15"/>
<text text-anchor="middle" x="280.945" y="-228.8" font-family="Times,serif" font-size="14.00">3/4</text>
</g>
<!-- 117 -->
<g id="node14" class="node"><title>117</title>
<ellipse fill="none" stroke="black" cx="336" cy="-190" rx="41.0885" ry="18"/>
<text text-anchor="middle" x="336" y="-185.8" font-family="Times,serif" font-size="14.00">1, 1, 1, 1</text>
</g>
<!-- 111&#45;&gt;117 -->
<g id="edge11" class="edge"><title>111&#45;&gt;117</title>
<path fill="none" stroke="black" d="M302.499,-258.001C308.402,-246.197 316.375,-230.25 323.062,-216.875"/>
<polygon fill="black" stroke="black" points="326.315,-218.196 327.657,-207.687 320.054,-215.066 326.315,-218.196"/>
<text text-anchor="middle" x="325.945" y="-228.8" font-family="Times,serif" font-size="14.00">1/4</text>
</g>
<!-- 118 -->
<g id="node21" class="node"><title>118</title>
<ellipse fill="none" stroke="black" cx="243" cy="-104" rx="27" ry="18"/>
<text text-anchor="middle" x="243" y="-99.8" font-family="Times,serif" font-size="14.00">1, 2</text>
</g>
<!-- 116&#45;&gt;118 -->
<g id="edge20" class="edge"><title>116&#45;&gt;118</title>
<path fill="none" stroke="black" d="M244.595,-172.001C244.326,-160.691 243.966,-145.576 243.656,-132.566"/>
<polygon fill="black" stroke="black" points="247.148,-132.176 243.411,-122.262 240.15,-132.342 247.148,-132.176"/>
<text text-anchor="middle" x="252.945" y="-142.8" font-family="Times,serif" font-size="14.00">2/3</text>
</g>
<!-- 119 -->
<g id="node22" class="node"><title>119</title>
<ellipse fill="none" stroke="black" cx="320" cy="-104" rx="32.324" ry="18"/>
<text text-anchor="middle" x="320" y="-99.8" font-family="Times,serif" font-size="14.00">1, 1, 1</text>
</g>
<!-- 116&#45;&gt;119 -->
<g id="edge21" class="edge"><title>116&#45;&gt;119</title>
<path fill="none" stroke="black" d="M258.756,-173.593C270.174,-160.805 286.581,-142.429 299.54,-127.915"/>
<polygon fill="black" stroke="black" points="302.282,-130.1 306.331,-120.309 297.06,-125.438 302.282,-130.1"/>
<text text-anchor="middle" x="294.945" y="-142.8" font-family="Times,serif" font-size="14.00">1/3</text>
</g>
<!-- 1160 -->
<g id="node19" class="node"><title>1160</title>
<ellipse fill="none" stroke="black" cx="427" cy="-190" rx="32.324" ry="18"/>
<text text-anchor="middle" x="427" y="-185.8" font-family="Times,serif" font-size="14.00">1, 1, 2</text>
</g>
<!-- 112&#45;&gt;1160 -->
<g id="edge18" class="edge"><title>112&#45;&gt;1160</title>
<path fill="none" stroke="black" d="M427,-257.595C427,-246.257 427,-231.227 427,-218.315"/>
<polygon fill="black" stroke="black" points="430.5,-218.095 427,-208.095 423.5,-218.095 430.5,-218.095"/>
<text text-anchor="middle" x="435.945" y="-228.8" font-family="Times,serif" font-size="14.00">3/4</text>
</g>
<!-- 1170 -->
<g id="node20" class="node"><title>1170</title>
<ellipse fill="none" stroke="black" cx="518" cy="-190" rx="41.0885" ry="18"/>
<text text-anchor="middle" x="518" y="-185.8" font-family="Times,serif" font-size="14.00">1, 1, 1, 1</text>
</g>
<!-- 112&#45;&gt;1170 -->
<g id="edge19" class="edge"><title>112&#45;&gt;1170</title>
<path fill="none" stroke="black" d="M444.116,-259.2C458.058,-246.331 477.92,-227.996 493.54,-213.578"/>
<polygon fill="black" stroke="black" points="496.294,-215.8 501.268,-206.445 491.546,-210.656 496.294,-215.8"/>
<text text-anchor="middle" x="485.945" y="-228.8" font-family="Times,serif" font-size="14.00">1/4</text>
</g>
<!-- 11800 -->
<g id="node25" class="node"><title>11800</title>
<ellipse fill="none" stroke="black" cx="87" cy="-104" rx="27" ry="18"/>
<text text-anchor="middle" x="87" y="-99.8" font-family="Times,serif" font-size="14.00">1, 2</text>
</g>
<!-- 115&#45;&gt;11800 -->
<g id="edge24" class="edge"><title>115&#45;&gt;11800</title>
<path fill="none" stroke="black" d="M149.06,-173.593C137.346,-160.645 120.448,-141.969 107.242,-127.373"/>
<polygon fill="black" stroke="black" points="109.646,-124.813 100.341,-119.746 104.455,-129.509 109.646,-124.813"/>
<text text-anchor="middle" x="138.945" y="-142.8" font-family="Times,serif" font-size="14.00">2/3</text>
</g>
<!-- 11900 -->
<g id="node26" class="node"><title>11900</title>
<ellipse fill="none" stroke="black" cx="164" cy="-104" rx="32.324" ry="18"/>
<text text-anchor="middle" x="164" y="-99.8" font-family="Times,serif" font-size="14.00">1, 1, 1</text>
</g>
<!-- 115&#45;&gt;11900 -->
<g id="edge25" class="edge"><title>115&#45;&gt;11900</title>
<path fill="none" stroke="black" d="M163.207,-171.595C163.342,-160.257 163.521,-145.227 163.675,-132.315"/>
<polygon fill="black" stroke="black" points="167.177,-132.136 163.796,-122.095 160.178,-132.053 167.177,-132.136"/>
<text text-anchor="middle" x="172.945" y="-142.8" font-family="Times,serif" font-size="14.00">1/3</text>
</g>
<!-- 1180 -->
<g id="node23" class="node"><title>1180</title>
<ellipse fill="none" stroke="black" cx="404" cy="-104" rx="27" ry="18"/>
<text text-anchor="middle" x="404" y="-99.8" font-family="Times,serif" font-size="14.00">1, 2</text>
</g>
<!-- 1160&#45;&gt;1180 -->
<g id="edge22" class="edge"><title>1160&#45;&gt;1180</title>
<path fill="none" stroke="black" d="M422.346,-172.001C419.197,-160.502 414.972,-145.071 411.37,-131.916"/>
<polygon fill="black" stroke="black" points="414.664,-130.694 408.647,-121.973 407.913,-132.543 414.664,-130.694"/>
<text text-anchor="middle" x="424.945" y="-142.8" font-family="Times,serif" font-size="14.00">2/3</text>
</g>
<!-- 1190 -->
<g id="node24" class="node"><title>1190</title>
<ellipse fill="none" stroke="black" cx="481" cy="-104" rx="32.324" ry="18"/>
<text text-anchor="middle" x="481" y="-99.8" font-family="Times,serif" font-size="14.00">1, 1, 1</text>
</g>
<!-- 1160&#45;&gt;1190 -->
<g id="edge23" class="edge"><title>1160&#45;&gt;1190</title>
<path fill="none" stroke="black" d="M437.412,-172.804C445.256,-160.602 456.149,-143.657 465.084,-129.759"/>
<polygon fill="black" stroke="black" points="468.157,-131.451 470.62,-121.146 462.268,-127.665 468.157,-131.451"/>
<text text-anchor="middle" x="465.945" y="-142.8" font-family="Times,serif" font-size="14.00">1/3</text>
</g>
<!-- 1204 -->
<g id="node31" class="node"><title>1204</title>
<ellipse fill="none" stroke="black" cx="196" cy="-18" rx="27" ry="18"/>
<text text-anchor="middle" x="196" y="-13.8" font-family="Times,serif" font-size="14.00">2</text>
</g>
<!-- 118&#45;&gt;1204 -->
<g id="edge30" class="edge"><title>118&#45;&gt;1204</title>
<path fill="none" stroke="black" d="M233.938,-86.804C227.176,-74.7184 217.81,-57.9789 210.076,-44.1565"/>
<polygon fill="black" stroke="black" points="212.972,-42.1641 205.034,-35.1463 206.863,-45.5822 212.972,-42.1641"/>
<text text-anchor="middle" x="231.945" y="-56.8" font-family="Times,serif" font-size="14.00">1/2</text>
</g>
<!-- 1205 -->
<g id="node32" class="node"><title>1205</title>
<ellipse fill="none" stroke="black" cx="268" cy="-18" rx="27" ry="18"/>
<text text-anchor="middle" x="268" y="-13.8" font-family="Times,serif" font-size="14.00">1, 1</text>
</g>
<!-- 118&#45;&gt;1205 -->
<g id="edge31" class="edge"><title>118&#45;&gt;1205</title>
<path fill="none" stroke="black" d="M248.059,-86.0013C251.482,-74.5018 256.074,-59.0709 259.989,-45.9164"/>
<polygon fill="black" stroke="black" points="263.45,-46.5563 262.948,-35.9734 256.741,-44.5595 263.45,-46.5563"/>
<text text-anchor="middle" x="264.945" y="-56.8" font-family="Times,serif" font-size="14.00">1/2</text>
</g>
<!-- 1202 -->
<g id="node29" class="node"><title>1202</title>
<ellipse fill="none" stroke="black" cx="353" cy="-18" rx="27" ry="18"/>
<text text-anchor="middle" x="353" y="-13.8" font-family="Times,serif" font-size="14.00">2</text>
</g>
<!-- 1180&#45;&gt;1202 -->
<g id="edge28" class="edge"><title>1180&#45;&gt;1202</title>
<path fill="none" stroke="black" d="M394.167,-86.804C386.711,-74.524 376.338,-57.4391 367.87,-43.4917"/>
<polygon fill="black" stroke="black" points="370.812,-41.5929 362.63,-34.8615 364.828,-45.2258 370.812,-41.5929"/>
<text text-anchor="middle" x="389.945" y="-56.8" font-family="Times,serif" font-size="14.00">1/2</text>
</g>
<!-- 1203 -->
<g id="node30" class="node"><title>1203</title>
<ellipse fill="none" stroke="black" cx="425" cy="-18" rx="27" ry="18"/>
<text text-anchor="middle" x="425" y="-13.8" font-family="Times,serif" font-size="14.00">1, 1</text>
</g>
<!-- 1180&#45;&gt;1203 -->
<g id="edge29" class="edge"><title>1180&#45;&gt;1203</title>
<path fill="none" stroke="black" d="M408.25,-86.0013C411.125,-74.5018 414.982,-59.0709 418.271,-45.9164"/>
<polygon fill="black" stroke="black" points="421.727,-46.5237 420.757,-35.9734 414.936,-44.8259 421.727,-46.5237"/>
<text text-anchor="middle" x="423.945" y="-56.8" font-family="Times,serif" font-size="14.00">1/2</text>
</g>
<!-- 1200 -->
<g id="node27" class="node"><title>1200</title>
<ellipse fill="none" stroke="black" cx="27" cy="-18" rx="27" ry="18"/>
<text text-anchor="middle" x="27" y="-13.8" font-family="Times,serif" font-size="14.00">2</text>
</g>
<!-- 11800&#45;&gt;1200 -->
<g id="edge26" class="edge"><title>11800&#45;&gt;1200</title>
<path fill="none" stroke="black" d="M75.7145,-87.2002C66.7749,-74.6849 54.144,-57.0016 43.9839,-42.7775"/>
<polygon fill="black" stroke="black" points="46.6927,-40.5481 38.0322,-34.4451 40.9966,-44.6168 46.6927,-40.5481"/>
<text text-anchor="middle" x="69.9448" y="-56.8" font-family="Times,serif" font-size="14.00">1/2</text>
</g>
<!-- 1201 -->
<g id="node28" class="node"><title>1201</title>
<ellipse fill="none" stroke="black" cx="99" cy="-18" rx="27" ry="18"/>
<text text-anchor="middle" x="99" y="-13.8" font-family="Times,serif" font-size="14.00">1, 1</text>
</g>
<!-- 11800&#45;&gt;1201 -->
<g id="edge27" class="edge"><title>11800&#45;&gt;1201</title>
<path fill="none" stroke="black" d="M89.4284,-86.0013C91.0712,-74.5018 93.2756,-59.0709 95.1548,-45.9164"/>
<polygon fill="black" stroke="black" points="98.6258,-46.3679 96.5752,-35.9734 91.6961,-45.3779 98.6258,-46.3679"/>
<text text-anchor="middle" x="102.945" y="-56.8" font-family="Times,serif" font-size="14.00">1/2</text>
</g>
</g>
</svg>
