<?xml version="1.0" encoding="UTF-8" standalone="no"?>
<!DOCTYPE svg PUBLIC "-//W3C//DTD SVG 1.1//EN"
 "http://www.w3.org/Graphics/SVG/1.1/DTD/svg11.dtd">
<!-- Generated by graphviz version 2.36.0 (20140111.2315)
 -->
<!-- Title: G Pages: 1 -->
<svg width="1070pt" height="116pt"
 viewBox="0.00 0.00 1070.00 116.00" xmlns="http://www.w3.org/2000/svg" xmlns:xlink="http://www.w3.org/1999/xlink">
<g id="graph0" class="graph" transform="scale(1 1) rotate(0) translate(4 112)">
<title>G</title>
<polygon fill="white" stroke="none" points="-4,4 -4,-112 1066,-112 1066,4 -4,4"/>
<!-- 2 -->
<g id="node1" class="node"><title>2</title>
<ellipse fill="none" stroke="black" cx="27" cy="-90" rx="27" ry="18"/>
<text text-anchor="middle" x="27" y="-85.8" font-family="Times,serif" font-size="14.00">2</text>
</g>
<!-- a -->
<g id="node2" class="node"><title>a</title>
<ellipse fill="none" stroke="black" cx="27" cy="-18" rx="27" ry="18"/>
<text text-anchor="middle" x="27" y="-13.8" font-family="Times,serif" font-size="14.00">a</text>
</g>
<!-- 2&#45;&gt;a -->
<g id="edge1" class="edge"><title>2&#45;&gt;a</title>
<path fill="none" stroke="black" d="M27,-71.6966C27,-63.9827 27,-54.7125 27,-46.1124"/>
<polygon fill="black" stroke="black" points="30.5001,-46.1043 27,-36.1043 23.5001,-46.1044 30.5001,-46.1043"/>
</g>
<!-- 3 -->
<g id="node3" class="node"><title>3</title>
<ellipse fill="none" stroke="black" cx="99" cy="-90" rx="27" ry="18"/>
<text text-anchor="middle" x="99" y="-85.8" font-family="Times,serif" font-size="14.00">3</text>
</g>
<!-- b -->
<g id="node4" class="node"><title>b</title>
<ellipse fill="none" stroke="black" cx="99" cy="-18" rx="27" ry="18"/>
<text text-anchor="middle" x="99" y="-13.8" font-family="Times,serif" font-size="14.00">b</text>
</g>
<!-- 3&#45;&gt;b -->
<g id="edge2" class="edge"><title>3&#45;&gt;b</title>
<path fill="none" stroke="black" d="M99,-71.6966C99,-63.9827 99,-54.7125 99,-46.1124"/>
<polygon fill="black" stroke="black" points="102.5,-46.1043 99,-36.1043 95.5001,-46.1044 102.5,-46.1043"/>
</g>
<!-- 5 -->
<g id="node5" class="node"><title>5</title>
<ellipse fill="none" stroke="black" cx="171" cy="-90" rx="27" ry="18"/>
<text text-anchor="middle" x="171" y="-85.8" font-family="Times,serif" font-size="14.00">5</text>
</g>
<!-- c -->
<g id="node6" class="node"><title>c</title>
<ellipse fill="none" stroke="black" cx="171" cy="-18" rx="27" ry="18"/>
<text text-anchor="middle" x="171" y="-13.8" font-family="Times,serif" font-size="14.00">c</text>
</g>
<!-- 5&#45;&gt;c -->
<g id="edge3" class="edge"><title>5&#45;&gt;c</title>
<path fill="none" stroke="black" d="M171,-71.6966C171,-63.9827 171,-54.7125 171,-46.1124"/>
<polygon fill="black" stroke="black" points="174.5,-46.1043 171,-36.1043 167.5,-46.1044 174.5,-46.1043"/>
</g>
<!-- 7 -->
<g id="node7" class="node"><title>7</title>
<ellipse fill="red" stroke="black" cx="243" cy="-90" rx="27" ry="18"/>
<text text-anchor="middle" x="243" y="-85.8" font-family="Times,serif" font-size="14.00">7</text>
</g>
<!-- d -->
<g id="node8" class="node"><title>d</title>
<ellipse fill="green" stroke="black" cx="243" cy="-18" rx="27" ry="18"/>
<text text-anchor="middle" x="243" y="-13.8" font-family="Times,serif" font-size="14.00">d</text>
</g>
<!-- 7&#45;&gt;d -->
<g id="edge4" class="edge"><title>7&#45;&gt;d</title>
<path fill="none" stroke="black" d="M243,-71.6966C243,-63.9827 243,-54.7125 243,-46.1124"/>
<polygon fill="black" stroke="black" points="246.5,-46.1043 243,-36.1043 239.5,-46.1044 246.5,-46.1043"/>
</g>
<!-- 11 -->
<g id="node9" class="node"><title>11</title>
<ellipse fill="none" stroke="black" cx="315" cy="-90" rx="27" ry="18"/>
<text text-anchor="middle" x="315" y="-85.8" font-family="Times,serif" font-size="14.00">11</text>
</g>
<!-- e -->
<g id="node10" class="node"><title>e</title>
<ellipse fill="none" stroke="black" cx="315" cy="-18" rx="27" ry="18"/>
<text text-anchor="middle" x="315" y="-13.8" font-family="Times,serif" font-size="14.00">e</text>
</g>
<!-- 11&#45;&gt;e -->
<g id="edge5" class="edge"><title>11&#45;&gt;e</title>
<path fill="none" stroke="black" d="M315,-71.6966C315,-63.9827 315,-54.7125 315,-46.1124"/>
<polygon fill="black" stroke="black" points="318.5,-46.1043 315,-36.1043 311.5,-46.1044 318.5,-46.1043"/>
</g>
<!-- 13 -->
<g id="node11" class="node"><title>13</title>
<ellipse fill="none" stroke="black" cx="387" cy="-90" rx="27" ry="18"/>
<text text-anchor="middle" x="387" y="-85.8" font-family="Times,serif" font-size="14.00">13</text>
</g>
<!-- f -->
<g id="node12" class="node"><title>f</title>
<ellipse fill="none" stroke="black" cx="387" cy="-18" rx="27" ry="18"/>
<text text-anchor="middle" x="387" y="-13.8" font-family="Times,serif" font-size="14.00">f</text>
</g>
<!-- 13&#45;&gt;f -->
<g id="edge6" class="edge"><title>13&#45;&gt;f</title>
<path fill="none" stroke="black" d="M387,-71.6966C387,-63.9827 387,-54.7125 387,-46.1124"/>
<polygon fill="black" stroke="black" points="390.5,-46.1043 387,-36.1043 383.5,-46.1044 390.5,-46.1043"/>
</g>
<!-- 17 -->
<g id="node13" class="node"><title>17</title>
<ellipse fill="red" stroke="black" cx="459" cy="-90" rx="27" ry="18"/>
<text text-anchor="middle" x="459" y="-85.8" font-family="Times,serif" font-size="14.00">17</text>
</g>
<!-- g -->
<g id="node14" class="node"><title>g</title>
<ellipse fill="green" stroke="black" cx="459" cy="-18" rx="27" ry="18"/>
<text text-anchor="middle" x="459" y="-13.8" font-family="Times,serif" font-size="14.00">g</text>
</g>
<!-- 17&#45;&gt;g -->
<g id="edge7" class="edge"><title>17&#45;&gt;g</title>
<path fill="none" stroke="black" d="M459,-71.6966C459,-63.9827 459,-54.7125 459,-46.1124"/>
<polygon fill="black" stroke="black" points="462.5,-46.1043 459,-36.1043 455.5,-46.1044 462.5,-46.1043"/>
</g>
<!-- 23 -->
<g id="node15" class="node"><title>23</title>
<ellipse fill="none" stroke="black" cx="531" cy="-90" rx="27" ry="18"/>
<text text-anchor="middle" x="531" y="-85.8" font-family="Times,serif" font-size="14.00">23</text>
</g>
<!-- h -->
<g id="node16" class="node"><title>h</title>
<ellipse fill="none" stroke="black" cx="531" cy="-18" rx="27" ry="18"/>
<text text-anchor="middle" x="531" y="-13.8" font-family="Times,serif" font-size="14.00">h</text>
</g>
<!-- 23&#45;&gt;h -->
<g id="edge8" class="edge"><title>23&#45;&gt;h</title>
<path fill="none" stroke="black" d="M531,-71.6966C531,-63.9827 531,-54.7125 531,-46.1124"/>
<polygon fill="black" stroke="black" points="534.5,-46.1043 531,-36.1043 527.5,-46.1044 534.5,-46.1043"/>
</g>
<!-- 27 -->
<g id="node17" class="node"><title>27</title>
<ellipse fill="none" stroke="black" cx="603" cy="-90" rx="27" ry="18"/>
<text text-anchor="middle" x="603" y="-85.8" font-family="Times,serif" font-size="14.00">27</text>
</g>
<!-- i -->
<g id="node18" class="node"><title>i</title>
<ellipse fill="none" stroke="black" cx="603" cy="-18" rx="27" ry="18"/>
<text text-anchor="middle" x="603" y="-13.8" font-family="Times,serif" font-size="14.00">i</text>
</g>
<!-- 27&#45;&gt;i -->
<g id="edge9" class="edge"><title>27&#45;&gt;i</title>
<path fill="none" stroke="black" d="M603,-71.6966C603,-63.9827 603,-54.7125 603,-46.1124"/>
<polygon fill="black" stroke="black" points="606.5,-46.1043 603,-36.1043 599.5,-46.1044 606.5,-46.1043"/>
</g>
<!-- 29 -->
<g id="node19" class="node"><title>29</title>
<ellipse fill="none" stroke="black" cx="675" cy="-90" rx="27" ry="18"/>
<text text-anchor="middle" x="675" y="-85.8" font-family="Times,serif" font-size="14.00">29</text>
</g>
<!-- j -->
<g id="node20" class="node"><title>j</title>
<ellipse fill="none" stroke="black" cx="675" cy="-18" rx="27" ry="18"/>
<text text-anchor="middle" x="675" y="-13.8" font-family="Times,serif" font-size="14.00">j</text>
</g>
<!-- 29&#45;&gt;j -->
<g id="edge10" class="edge"><title>29&#45;&gt;j</title>
<path fill="none" stroke="black" d="M675,-71.6966C675,-63.9827 675,-54.7125 675,-46.1124"/>
<polygon fill="black" stroke="black" points="678.5,-46.1043 675,-36.1043 671.5,-46.1044 678.5,-46.1043"/>
</g>
<!-- 31 -->
<g id="node21" class="node"><title>31</title>
<ellipse fill="none" stroke="black" cx="747" cy="-90" rx="27" ry="18"/>
<text text-anchor="middle" x="747" y="-85.8" font-family="Times,serif" font-size="14.00">31</text>
</g>
<!-- k -->
<g id="node22" class="node"><title>k</title>
<ellipse fill="none" stroke="black" cx="747" cy="-18" rx="27" ry="18"/>
<text text-anchor="middle" x="747" y="-13.8" font-family="Times,serif" font-size="14.00">k</text>
</g>
<!-- 31&#45;&gt;k -->
<g id="edge11" class="edge"><title>31&#45;&gt;k</title>
<path fill="none" stroke="black" d="M747,-71.6966C747,-63.9827 747,-54.7125 747,-46.1124"/>
<polygon fill="black" stroke="black" points="750.5,-46.1043 747,-36.1043 743.5,-46.1044 750.5,-46.1043"/>
</g>
<!-- 37 -->
<g id="node23" class="node"><title>37</title>
<ellipse fill="none" stroke="black" cx="819" cy="-90" rx="27" ry="18"/>
<text text-anchor="middle" x="819" y="-85.8" font-family="Times,serif" font-size="14.00">37</text>
</g>
<!-- l -->
<g id="node24" class="node"><title>l</title>
<ellipse fill="none" stroke="black" cx="819" cy="-18" rx="27" ry="18"/>
<text text-anchor="middle" x="819" y="-13.8" font-family="Times,serif" font-size="14.00">l</text>
</g>
<!-- 37&#45;&gt;l -->
<g id="edge12" class="edge"><title>37&#45;&gt;l</title>
<path fill="none" stroke="black" d="M819,-71.6966C819,-63.9827 819,-54.7125 819,-46.1124"/>
<polygon fill="black" stroke="black" points="822.5,-46.1043 819,-36.1043 815.5,-46.1044 822.5,-46.1043"/>
</g>
<!-- 43 -->
<g id="node25" class="node"><title>43</title>
<ellipse fill="none" stroke="black" cx="891" cy="-90" rx="27" ry="18"/>
<text text-anchor="middle" x="891" y="-85.8" font-family="Times,serif" font-size="14.00">43</text>
</g>
<!-- m -->
<g id="node26" class="node"><title>m</title>
<ellipse fill="none" stroke="black" cx="891" cy="-18" rx="27" ry="18"/>
<text text-anchor="middle" x="891" y="-13.8" font-family="Times,serif" font-size="14.00">m</text>
</g>
<!-- 43&#45;&gt;m -->
<g id="edge13" class="edge"><title>43&#45;&gt;m</title>
<path fill="none" stroke="black" d="M891,-71.6966C891,-63.9827 891,-54.7125 891,-46.1124"/>
<polygon fill="black" stroke="black" points="894.5,-46.1043 891,-36.1043 887.5,-46.1044 894.5,-46.1043"/>
</g>
<!-- 47 -->
<g id="node27" class="node"><title>47</title>
<ellipse fill="none" stroke="black" cx="963" cy="-90" rx="27" ry="18"/>
<text text-anchor="middle" x="963" y="-85.8" font-family="Times,serif" font-size="14.00">47</text>
</g>
<!-- n -->
<g id="node28" class="node"><title>n</title>
<ellipse fill="none" stroke="black" cx="963" cy="-18" rx="27" ry="18"/>
<text text-anchor="middle" x="963" y="-13.8" font-family="Times,serif" font-size="14.00">n</text>
</g>
<!-- 47&#45;&gt;n -->
<g id="edge14" class="edge"><title>47&#45;&gt;n</title>
<path fill="none" stroke="black" d="M963,-71.6966C963,-63.9827 963,-54.7125 963,-46.1124"/>
<polygon fill="black" stroke="black" points="966.5,-46.1043 963,-36.1043 959.5,-46.1044 966.5,-46.1043"/>
</g>
<!-- 53 -->
<g id="node29" class="node"><title>53</title>
<ellipse fill="red" stroke="black" cx="1035" cy="-90" rx="27" ry="18"/>
<text text-anchor="middle" x="1035" y="-85.8" font-family="Times,serif" font-size="14.00">53</text>
</g>
<!-- o -->
<g id="node30" class="node"><title>o</title>
<ellipse fill="green" stroke="black" cx="1035" cy="-18" rx="27" ry="18"/>
<text text-anchor="middle" x="1035" y="-13.8" font-family="Times,serif" font-size="14.00">o</text>
</g>
<!-- 53&#45;&gt;o -->
<g id="edge15" class="edge"><title>53&#45;&gt;o</title>
<path fill="none" stroke="black" d="M1035,-71.6966C1035,-63.9827 1035,-54.7125 1035,-46.1124"/>
<polygon fill="black" stroke="black" points="1038.5,-46.1043 1035,-36.1043 1031.5,-46.1044 1038.5,-46.1043"/>
</g>
</g>
</svg>
